<svg xmlns="http://www.w3.org/2000/svg" width="2267mm" height="1537mm" viewBox="0 0 2267 1537">
  <title>beginner-sup-foil-122l foil board template</title>
  <style>
    text { font-family: system-ui, sans-serif; fill: #263238; }
    .small { font-size: 24px; }
    .label { font-size: 30px; font-weight: 650; }
    .outline { fill: #e7f3f1; stroke: #123c46; stroke-width: 4; }
    .rocker-band { fill: #d5eee9; stroke: none; }
    .rocker { fill: none; stroke: #004f63; stroke-width: 8; }
    .guide { stroke: #d05d2d; stroke-width: 3; stroke-dasharray: 12 10; }
    .hardware { fill: none; stroke: #7d3c98; stroke-width: 4; }
    .stance { stroke: #546e7a; stroke-width: 2; stroke-dasharray: 8 9; }
    .baseline { stroke: #546e7a; stroke-width: 2; }
  </style>
  <rect width="100%" height="100%" fill="#fbfaf6"/>
  <text x="90" y="48" class="label">Foil Board Toolkit: beginner-sup-foil-122l</text>
  <text x="90" y="84" class="small">Plan outline: 2087 mm x 737 mm. Estimated volume: 122.0 L.</text>

  <polygon class="outline" points="90.0,642.9 133.5,655.8 176.9,684.2 220.4,712.3 263.9,728.6 307.4,731.4 350.9,735.4 394.3,743.8 437.8,755.6 481.3,769.3 524.8,783.6 568.2,797.3 611.7,809.3 655.2,818.7 698.7,824.6 742.1,827.0 785.6,827.2 829.1,827.2 872.6,827.2 916.0,827.2 959.5,827.2 1003.0,827.2 1046.5,827.2 1089.9,827.2 1133.4,827.2 1176.9,827.2 1220.3,827.2 1263.8,827.2 1307.3,827.1 1350.8,825.3 1394.2,819.4 1437.7,809.4 1481.2,795.5 1524.7,778.7 1568.2,759.9 1611.6,740.3 1655.1,721.4 1698.6,704.4 1742.0,690.9 1785.5,682.2 1829.0,679.7 1872.5,677.7 1916.0,670.7 1959.4,658.5 2002.9,642.4 2046.4,624.7 2089.9,608.2 2133.3,596.0 2176.8,591.3 2176.8,325.9 2133.3,321.2 2089.9,309.0 2046.4,292.4 2002.9,274.7 1959.4,258.7 1916.0,246.5 1872.5,239.5 1829.0,237.4 1785.5,235.0 1742.0,226.3 1698.6,212.8 1655.1,195.8 1611.6,176.8 1568.2,157.3 1524.7,138.5 1481.2,121.6 1437.7,107.8 1394.2,97.7 1350.8,91.9 1307.3,90.0 1263.8,90.0 1220.3,90.0 1176.9,90.0 1133.4,90.0 1089.9,90.0 1046.5,90.0 1003.0,90.0 959.5,90.0 916.0,90.0 872.6,90.0 829.1,90.0 785.6,90.0 742.1,90.1 698.7,92.5 655.2,98.5 611.7,107.8 568.2,119.8 524.8,133.5 481.3,147.9 437.8,161.6 394.3,173.3 350.9,181.8 307.4,185.7 263.9,188.6 220.4,204.9 176.9,233.0 133.5,261.3 90.0,274.3 90.0,642.9"/>
  <rect class="hardware" x="775.1" y="413.6" width="320.0" height="90.0" rx="0"/>
  <line class="guide" x1="935.1" y1="90" x2="935.1" y2="827.2"/>
  <line class="guide" x1="983.1" y1="90" x2="983.1" y2="827.2" opacity="0.55"/>
  <line class="stance" x1="683.1" y1="90" x2="683.1" y2="827.2"/>
  <line class="stance" x1="1283.1" y1="90" x2="1283.1" y2="827.2"/>
  <text x="947.1" y="128" class="small">foil box centre</text>
  <text x="995.1" y="164" class="small">stance centre</text>
  <text x="775.1" y="397.6" class="small">track envelope 320 x 90 mm</text>

  <text x="90" y="1042.1599999999999" class="label">Side rocker profile</text>
  <text x="420" y="1042.1599999999999" class="small">vertical scale x1.4</text>
  <line class="baseline" x1="90" y1="1447.1599999999999" x2="2176.8" y2="1447.1599999999999"/>
  <polygon class="rocker-band" points="90.0,1406.6 133.5,1406.6 176.9,1406.6 220.4,1409.4 263.9,1415.8 307.4,1424.3 350.9,1433.3 394.3,1441.1 437.8,1446.1 481.3,1447.2 524.8,1447.2 568.2,1447.2 611.7,1447.2 655.2,1447.2 698.7,1447.2 742.1,1447.2 785.6,1447.2 829.1,1447.2 872.6,1447.2 916.0,1447.2 959.5,1447.2 1003.0,1447.2 1046.5,1447.2 1089.9,1447.2 1133.4,1447.2 1176.9,1447.2 1220.3,1447.2 1263.8,1447.2 1307.3,1447.2 1350.8,1446.2 1394.2,1443.2 1437.7,1437.7 1481.2,1429.7 1524.7,1419.2 1568.2,1406.4 1611.6,1391.6 1655.1,1375.1 1698.6,1357.2 1742.0,1338.3 1785.5,1318.9 1829.0,1299.5 1872.5,1280.4 1916.0,1262.2 1959.4,1245.5 2002.9,1230.7 2046.4,1218.3 2089.9,1208.8 2133.3,1202.8 2176.8,1200.7 2176.8,1447.2 90.0,1447.2"/>
  <polyline class="rocker" points="90.0,1406.6 133.5,1406.6 176.9,1406.6 220.4,1409.4 263.9,1415.8 307.4,1424.3 350.9,1433.3 394.3,1441.1 437.8,1446.1 481.3,1447.2 524.8,1447.2 568.2,1447.2 611.7,1447.2 655.2,1447.2 698.7,1447.2 742.1,1447.2 785.6,1447.2 829.1,1447.2 872.6,1447.2 916.0,1447.2 959.5,1447.2 1003.0,1447.2 1046.5,1447.2 1089.9,1447.2 1133.4,1447.2 1176.9,1447.2 1220.3,1447.2 1263.8,1447.2 1307.3,1447.2 1350.8,1446.2 1394.2,1443.2 1437.7,1437.7 1481.2,1429.7 1524.7,1419.2 1568.2,1406.4 1611.6,1391.6 1655.1,1375.1 1698.6,1357.2 1742.0,1338.3 1785.5,1318.9 1829.0,1299.5 1872.5,1280.4 1916.0,1262.2 1959.4,1245.5 2002.9,1230.7 2046.4,1218.3 2089.9,1208.8 2133.3,1202.8 2176.8,1200.7"/>
  <text x="90" y="1499.1599999999999" class="small">Generated heuristic. Experimental design aid, not a proven board shape.</text>
</svg>
