<svg xmlns="http://www.w3.org/2000/svg" width="2267mm" height="1537mm" viewBox="0 0 2267 1537">
  <title>beginner-sup-foil-122l foil board template</title>
  <style>
    text { font-family: system-ui, sans-serif; fill: #263238; }
    .small { font-size: 24px; }
    .label { font-size: 30px; font-weight: 650; }
    .outline { fill: #e7f3f1; stroke: #123c46; stroke-width: 4; }
    .rocker-band { fill: #d5eee9; stroke: none; }
    .rocker { fill: none; stroke: #004f63; stroke-width: 8; }
    .guide { stroke: #d05d2d; stroke-width: 3; stroke-dasharray: 12 10; }
    .baseline { stroke: #546e7a; stroke-width: 2; }
  </style>
  <rect width="100%" height="100%" fill="#fbfaf6"/>
  <text x="90" y="48" class="label">Foil Board Toolkit: beginner-sup-foil-122l</text>
  <text x="90" y="84" class="small">Plan outline: 2087 mm x 737 mm. Estimated volume: 122.0 L.</text>

  <polygon class="outline" points="90.0,628.1 176.9,654.8 263.9,702.6 350.9,724.1 437.8,735.9 524.8,760.5 611.7,789.5 698.7,814.4 785.6,826.9 872.6,827.2 959.5,827.2 1046.5,827.2 1133.4,827.2 1220.3,827.2 1307.3,827.1 1394.2,814.9 1481.2,787.0 1568.2,751.2 1655.1,715.2 1742.0,686.4 1829.0,672.7 1916.0,660.6 2002.9,627.4 2089.9,592.6 2176.8,576.5 2176.8,340.6 2089.9,324.5 2002.9,289.7 1916.0,256.6 1829.0,244.5 1742.0,230.7 1655.1,202.0 1568.2,165.9 1481.2,130.1 1394.2,102.3 1307.3,90.1 1220.3,90.0 1133.4,90.0 1046.5,90.0 959.5,90.0 872.6,90.0 785.6,90.3 698.7,102.8 611.7,127.7 524.8,156.6 437.8,181.2 350.9,193.0 263.9,214.6 176.9,262.4 90.0,289.0 90.0,628.1"/>
  <line class="guide" x1="935.1" y1="90" x2="935.1" y2="827.2"/>
  <line class="guide" x1="983.1" y1="90" x2="983.1" y2="827.2" opacity="0.55"/>
  <text x="947.1" y="128" class="small">foil box centre</text>
  <text x="995.1" y="164" class="small">stance centre</text>

  <text x="90" y="1042.1599999999999" class="label">Side rocker profile</text>
  <text x="420" y="1042.1599999999999" class="small">vertical scale x1.4</text>
  <line class="baseline" x1="90" y1="1447.1599999999999" x2="2176.8" y2="1447.1599999999999"/>
  <polygon class="rocker-band" points="90.0,1406.6 133.5,1406.6 176.9,1406.6 220.4,1409.4 263.9,1415.8 307.4,1424.3 350.9,1433.3 394.3,1441.1 437.8,1446.1 481.3,1447.2 524.8,1447.2 568.2,1447.2 611.7,1447.2 655.2,1447.2 698.7,1447.2 742.1,1447.2 785.6,1447.2 829.1,1447.2 872.6,1447.2 916.0,1447.2 959.5,1447.2 1003.0,1447.2 1046.5,1447.2 1089.9,1447.2 1133.4,1447.2 1176.9,1447.2 1220.3,1447.2 1263.8,1447.2 1307.3,1447.2 1350.8,1446.2 1394.2,1443.2 1437.7,1437.7 1481.2,1429.7 1524.7,1419.2 1568.2,1406.4 1611.6,1391.6 1655.1,1375.1 1698.6,1357.2 1742.0,1338.3 1785.5,1318.9 1829.0,1299.5 1872.5,1280.4 1916.0,1262.2 1959.4,1245.5 2002.9,1230.7 2046.4,1218.3 2089.9,1208.8 2133.3,1202.8 2176.8,1200.7 2176.8,1447.2 90.0,1447.2"/>
  <polyline class="rocker" points="90.0,1406.6 133.5,1406.6 176.9,1406.6 220.4,1409.4 263.9,1415.8 307.4,1424.3 350.9,1433.3 394.3,1441.1 437.8,1446.1 481.3,1447.2 524.8,1447.2 568.2,1447.2 611.7,1447.2 655.2,1447.2 698.7,1447.2 742.1,1447.2 785.6,1447.2 829.1,1447.2 872.6,1447.2 916.0,1447.2 959.5,1447.2 1003.0,1447.2 1046.5,1447.2 1089.9,1447.2 1133.4,1447.2 1176.9,1447.2 1220.3,1447.2 1263.8,1447.2 1307.3,1447.2 1350.8,1446.2 1394.2,1443.2 1437.7,1437.7 1481.2,1429.7 1524.7,1419.2 1568.2,1406.4 1611.6,1391.6 1655.1,1375.1 1698.6,1357.2 1742.0,1338.3 1785.5,1318.9 1829.0,1299.5 1872.5,1280.4 1916.0,1262.2 1959.4,1245.5 2002.9,1230.7 2046.4,1218.3 2089.9,1208.8 2133.3,1202.8 2176.8,1200.7"/>
  <text x="90" y="1499.1599999999999" class="small">Generated heuristic. Experimental design aid, not a proven board shape.</text>
</svg>
