<svg xmlns="http://www.w3.org/2000/svg" width="1542mm" height="1337mm" viewBox="0 0 1542 1337">
  <title>compact-wing-50l foil board template</title>
  <style>
    text { font-family: system-ui, sans-serif; fill: #263238; }
    .small { font-size: 24px; }
    .label { font-size: 30px; font-weight: 650; }
    .outline { fill: #e7f3f1; stroke: #123c46; stroke-width: 4; }
    .rocker-band { fill: #d5eee9; stroke: none; }
    .rocker { fill: none; stroke: #004f63; stroke-width: 8; }
    .guide { stroke: #d05d2d; stroke-width: 3; stroke-dasharray: 12 10; }
    .hardware { fill: none; stroke: #7d3c98; stroke-width: 4; }
    .stance { stroke: #546e7a; stroke-width: 2; stroke-dasharray: 8 9; }
    .baseline { stroke: #546e7a; stroke-width: 2; }
  </style>
  <rect width="100%" height="100%" fill="#fbfaf6"/>
  <text x="90" y="48" class="label">Foil Board Toolkit: compact-wing-50l</text>
  <text x="90" y="84" class="small">Plan outline: 1362 mm x 537 mm. Estimated volume: 50.0 L.</text>

  <polygon class="outline" points="90.0,503.7 118.4,515.6 146.8,538.9 175.2,556.9 203.5,562.7 231.9,565.4 260.3,576.8 288.7,592.8 317.1,608.8 345.5,620.9 373.9,626.7 402.2,627.2 430.6,627.2 459.0,627.2 487.4,627.2 515.8,627.2 544.2,627.2 572.6,627.2 600.9,627.2 629.3,627.2 657.7,627.2 686.1,627.2 714.5,627.2 742.9,627.2 771.2,627.2 799.6,627.2 828.0,626.6 856.4,623.8 884.8,618.4 913.2,610.6 941.6,600.5 969.9,588.6 998.3,575.5 1026.7,562.0 1055.1,548.7 1083.5,536.5 1111.9,526.2 1140.3,518.7 1168.6,514.8 1197.0,514.3 1225.4,512.5 1253.8,508.0 1282.2,500.8 1310.6,491.2 1339.0,480.3 1367.3,469.3 1395.7,459.5 1424.1,452.6 1452.5,450.0 1452.5,267.3 1424.1,264.7 1395.7,257.7 1367.3,248.0 1339.0,236.9 1310.6,226.0 1282.2,216.5 1253.8,209.2 1225.4,204.7 1197.0,203.0 1168.6,202.5 1140.3,198.6 1111.9,191.1 1083.5,180.8 1055.1,168.6 1026.7,155.3 998.3,141.7 969.9,128.6 941.6,116.8 913.2,106.7 884.8,98.8 856.4,93.5 828.0,90.7 799.6,90.0 771.2,90.0 742.9,90.0 714.5,90.0 686.1,90.0 657.7,90.0 629.3,90.0 600.9,90.0 572.6,90.0 544.2,90.0 515.8,90.0 487.4,90.0 459.0,90.0 430.6,90.0 402.2,90.0 373.9,90.6 345.5,96.3 317.1,108.4 288.7,124.4 260.3,140.4 231.9,151.8 203.5,154.6 175.2,160.3 146.8,178.4 118.4,201.7 90.0,213.6 90.0,503.7"/>
  <rect class="hardware" x="431.0" y="313.6" width="320.0" height="90.0" rx="0"/>
  <line class="guide" x1="591.0" y1="90" x2="591.0" y2="627.2"/>
  <line class="guide" x1="632.6" y1="90" x2="632.6" y2="627.2" opacity="0.55"/>
  <line class="stance" x1="372.6" y1="90" x2="372.6" y2="627.2"/>
  <line class="stance" x1="892.6" y1="90" x2="892.6" y2="627.2"/>
  <text x="603.0" y="128" class="small">foil box centre</text>
  <text x="644.6" y="164" class="small">stance centre</text>
  <text x="431.0" y="297.6" class="small">track envelope 320 x 90 mm</text>

  <text x="90" y="842.25" class="label">Side rocker profile</text>
  <text x="420" y="842.25" class="small">vertical scale x1.4</text>
  <line class="baseline" x1="90" y1="1247.25" x2="1452.5" y2="1247.25"/>
  <polygon class="rocker-band" points="90.0,1221.2 118.4,1221.2 146.8,1221.2 175.2,1223.0 203.5,1227.1 231.9,1232.6 260.3,1238.3 288.7,1243.3 317.1,1246.6 345.5,1247.2 373.9,1247.2 402.2,1247.2 430.6,1247.2 459.0,1247.2 487.4,1247.2 515.8,1247.2 544.2,1247.2 572.6,1247.2 600.9,1247.2 629.3,1247.2 657.7,1247.2 686.1,1247.2 714.5,1247.2 742.9,1247.2 771.2,1247.2 799.6,1247.2 828.0,1247.2 856.4,1247.2 884.8,1247.2 913.2,1246.6 941.6,1244.6 969.9,1240.9 998.3,1235.4 1026.7,1228.3 1055.1,1219.7 1083.5,1209.7 1111.9,1198.5 1140.3,1186.4 1168.6,1173.6 1197.0,1160.5 1225.4,1147.3 1253.8,1134.4 1282.2,1122.2 1310.6,1110.8 1339.0,1100.8 1367.3,1092.4 1395.7,1086.0 1424.1,1081.9 1452.5,1080.5 1452.5,1247.2 90.0,1247.2"/>
  <polyline class="rocker" points="90.0,1221.2 118.4,1221.2 146.8,1221.2 175.2,1223.0 203.5,1227.1 231.9,1232.6 260.3,1238.3 288.7,1243.3 317.1,1246.6 345.5,1247.2 373.9,1247.2 402.2,1247.2 430.6,1247.2 459.0,1247.2 487.4,1247.2 515.8,1247.2 544.2,1247.2 572.6,1247.2 600.9,1247.2 629.3,1247.2 657.7,1247.2 686.1,1247.2 714.5,1247.2 742.9,1247.2 771.2,1247.2 799.6,1247.2 828.0,1247.2 856.4,1247.2 884.8,1247.2 913.2,1246.6 941.6,1244.6 969.9,1240.9 998.3,1235.4 1026.7,1228.3 1055.1,1219.7 1083.5,1209.7 1111.9,1198.5 1140.3,1186.4 1168.6,1173.6 1197.0,1160.5 1225.4,1147.3 1253.8,1134.4 1282.2,1122.2 1310.6,1110.8 1339.0,1100.8 1367.3,1092.4 1395.7,1086.0 1424.1,1081.9 1452.5,1080.5"/>
  <text x="90" y="1299.25" class="small">Generated heuristic. Experimental design aid, not a proven board shape.</text>
</svg>
