<svg xmlns="http://www.w3.org/2000/svg" width="1542mm" height="1337mm" viewBox="0 0 1542 1337">
  <title>compact-wing-50l foil board template</title>
  <style>
    text { font-family: system-ui, sans-serif; fill: #263238; }
    .small { font-size: 24px; }
    .label { font-size: 30px; font-weight: 650; }
    .outline { fill: #e7f3f1; stroke: #123c46; stroke-width: 4; }
    .rocker-band { fill: #d5eee9; stroke: none; }
    .rocker { fill: none; stroke: #004f63; stroke-width: 8; }
    .guide { stroke: #d05d2d; stroke-width: 3; stroke-dasharray: 12 10; }
    .baseline { stroke: #546e7a; stroke-width: 2; }
  </style>
  <rect width="100%" height="100%" fill="#fbfaf6"/>
  <text x="90" y="48" class="label">Foil Board Toolkit: compact-wing-50l</text>
  <text x="90" y="84" class="small">Plan outline: 1362 mm x 537 mm. Estimated volume: 50.0 L.</text>

  <polygon class="outline" points="90.0,492.9 146.8,515.2 203.5,547.7 260.3,558.4 317.1,587.0 373.9,617.4 430.6,627.2 487.4,627.2 544.2,627.2 600.9,627.2 657.7,627.2 714.5,627.2 771.2,627.2 828.0,625.6 884.8,614.3 941.6,595.5 998.3,572.7 1055.1,549.7 1111.9,530.0 1168.6,517.3 1225.4,513.3 1282.2,497.7 1339.0,472.6 1395.7,449.4 1452.5,439.2 1452.5,278.0 1395.7,267.8 1339.0,244.6 1282.2,219.6 1225.4,204.0 1168.6,200.0 1111.9,187.3 1055.1,167.6 998.3,144.5 941.6,121.8 884.8,103.0 828.0,91.7 771.2,90.0 714.5,90.0 657.7,90.0 600.9,90.0 544.2,90.0 487.4,90.0 430.6,90.0 373.9,99.8 317.1,130.3 260.3,158.9 203.5,169.6 146.8,202.1 90.0,224.3 90.0,492.9"/>
  <line class="guide" x1="591.0" y1="90" x2="591.0" y2="627.2"/>
  <line class="guide" x1="632.6" y1="90" x2="632.6" y2="627.2" opacity="0.55"/>
  <text x="603.0" y="128" class="small">foil box centre</text>
  <text x="644.6" y="164" class="small">stance centre</text>

  <text x="90" y="842.25" class="label">Side rocker profile</text>
  <text x="420" y="842.25" class="small">vertical scale x1.4</text>
  <line class="baseline" x1="90" y1="1247.25" x2="1452.5" y2="1247.25"/>
  <polygon class="rocker-band" points="90.0,1221.2 118.4,1221.2 146.8,1221.2 175.2,1223.0 203.5,1227.1 231.9,1232.6 260.3,1238.3 288.7,1243.3 317.1,1246.6 345.5,1247.2 373.9,1247.2 402.2,1247.2 430.6,1247.2 459.0,1247.2 487.4,1247.2 515.8,1247.2 544.2,1247.2 572.6,1247.2 600.9,1247.2 629.3,1247.2 657.7,1247.2 686.1,1247.2 714.5,1247.2 742.9,1247.2 771.2,1247.2 799.6,1247.2 828.0,1247.2 856.4,1247.2 884.8,1247.2 913.2,1246.6 941.6,1244.6 969.9,1240.9 998.3,1235.4 1026.7,1228.3 1055.1,1219.7 1083.5,1209.7 1111.9,1198.5 1140.3,1186.4 1168.6,1173.6 1197.0,1160.5 1225.4,1147.3 1253.8,1134.4 1282.2,1122.2 1310.6,1110.8 1339.0,1100.8 1367.3,1092.4 1395.7,1086.0 1424.1,1081.9 1452.5,1080.5 1452.5,1247.2 90.0,1247.2"/>
  <polyline class="rocker" points="90.0,1221.2 118.4,1221.2 146.8,1221.2 175.2,1223.0 203.5,1227.1 231.9,1232.6 260.3,1238.3 288.7,1243.3 317.1,1246.6 345.5,1247.2 373.9,1247.2 402.2,1247.2 430.6,1247.2 459.0,1247.2 487.4,1247.2 515.8,1247.2 544.2,1247.2 572.6,1247.2 600.9,1247.2 629.3,1247.2 657.7,1247.2 686.1,1247.2 714.5,1247.2 742.9,1247.2 771.2,1247.2 799.6,1247.2 828.0,1247.2 856.4,1247.2 884.8,1247.2 913.2,1246.6 941.6,1244.6 969.9,1240.9 998.3,1235.4 1026.7,1228.3 1055.1,1219.7 1083.5,1209.7 1111.9,1198.5 1140.3,1186.4 1168.6,1173.6 1197.0,1160.5 1225.4,1147.3 1253.8,1134.4 1282.2,1122.2 1310.6,1110.8 1339.0,1100.8 1367.3,1092.4 1395.7,1086.0 1424.1,1081.9 1452.5,1080.5"/>
  <text x="90" y="1299.25" class="small">Generated heuristic. Experimental design aid, not a proven board shape.</text>
</svg>
