<svg xmlns="http://www.w3.org/2000/svg" width="2110mm" height="1404mm" viewBox="0 0 2110 1404">
  <title>downwind-sup-86l foil board template</title>
  <style>
    text { font-family: system-ui, sans-serif; fill: #263238; }
    .small { font-size: 24px; }
    .label { font-size: 30px; font-weight: 650; }
    .outline { fill: #e7f3f1; stroke: #123c46; stroke-width: 4; }
    .rocker-band { fill: #d5eee9; stroke: none; }
    .rocker { fill: none; stroke: #004f63; stroke-width: 8; }
    .deck { fill: none; stroke: #123c46; stroke-width: 5; }
    .guide { stroke: #d05d2d; stroke-width: 3; stroke-dasharray: 12 10; }
    .hardware { fill: none; stroke: #7d3c98; stroke-width: 4; }
    .stance { stroke: #546e7a; stroke-width: 2; stroke-dasharray: 8 9; }
    .baseline { stroke: #546e7a; stroke-width: 2; }
  </style>
  <rect width="100%" height="100%" fill="#fbfaf6"/>
  <text x="90" y="48" class="label">Foil Board Toolkit: downwind-sup-86l</text>
  <text x="90" y="84" class="small">Plan outline: 1930 x 461 x 165 mm. Estimated volume: 86.0 L.</text>

  <polygon class="outline" points="90.0,352.9 130.2,353.3 170.4,357.3 210.6,367.8 250.8,384.4 291.0,402.0 331.2,412.4 371.4,413.6 411.6,416.9 451.8,422.7 492.0,430.7 532.2,440.6 572.5,452.0 612.7,464.5 652.9,477.6 693.1,490.9 733.3,503.9 773.5,516.2 813.7,527.4 853.9,536.9 894.1,544.4 934.3,549.3 974.5,551.2 1014.7,551.2 1054.9,551.2 1095.1,551.2 1135.3,551.2 1175.5,551.2 1215.7,551.2 1255.9,551.2 1296.1,551.2 1336.3,551.2 1376.5,551.2 1416.7,551.2 1456.9,550.9 1497.1,545.8 1537.3,535.1 1577.6,520.0 1617.8,502.5 1658.0,484.5 1698.2,468.2 1738.4,456.0 1778.6,450.0 1818.8,444.0 1859.0,423.9 1899.2,398.5 1939.4,376.9 1979.6,364.8 2019.8,362.1 2019.8,279.1 1979.6,276.5 1939.4,264.3 1899.2,242.7 1859.0,217.4 1818.8,197.2 1778.6,191.2 1738.4,185.3 1698.2,173.0 1658.0,156.8 1617.8,138.8 1577.6,121.2 1537.3,106.2 1497.1,95.5 1456.9,90.4 1416.7,90.0 1376.5,90.0 1336.3,90.0 1296.1,90.0 1255.9,90.0 1215.7,90.0 1175.5,90.0 1135.3,90.0 1095.1,90.0 1054.9,90.0 1014.7,90.0 974.5,90.0 934.3,91.9 894.1,96.8 853.9,104.3 813.7,113.8 773.5,125.0 733.3,137.3 693.1,150.4 652.9,163.7 612.7,176.8 572.5,189.2 532.2,200.6 492.0,210.5 451.8,218.6 411.6,224.4 371.4,227.7 331.2,228.9 291.0,239.3 250.8,256.9 210.6,273.4 170.4,284.0 130.2,287.9 90.0,288.3 90.0,352.9"/>
  <rect class="hardware" x="765.1" y="275.6" width="320.0" height="90.0" rx="0"/>
  <line class="guide" x1="925.1" y1="90" x2="925.1" y2="551.2"/>
  <line class="guide" x1="969.9" y1="90" x2="969.9" y2="551.2" opacity="0.55"/>
  <line class="stance" x1="689.9" y1="90" x2="689.9" y2="551.2"/>
  <line class="stance" x1="1249.9" y1="90" x2="1249.9" y2="551.2"/>
  <text x="937.1" y="128" class="small">foil box centre</text>
  <text x="981.9" y="164" class="small">stance centre</text>
  <text x="765.1" y="259.6" class="small">track envelope 320 x 90 mm</text>

  <text x="90" y="766.25" class="label">Side rocker profile</text>
  <text x="420" y="766.25" class="small">vertical scale x1.4. Stock envelope 1970 x 500 x 320 mm.</text>
  <line class="baseline" x1="90" y1="1314.2992070891157" x2="2019.8" y2="1314.2992070891157"/>
  <polygon class="rocker-band" points="90.0,1157.2 130.2,1155.8 170.4,1152.1 210.6,1149.1 250.8,1148.2 291.0,1148.4 331.2,1149.1 371.4,1148.8 411.6,1144.7 451.8,1135.6 492.0,1125.0 532.2,1114.4 572.5,1104.1 612.7,1094.3 652.9,1085.4 693.1,1077.5 733.3,1070.9 773.5,1065.7 813.7,1062.0 853.9,1059.8 894.1,1058.4 934.3,1057.5 974.5,1057.1 1014.7,1057.0 1054.9,1057.0 1095.1,1057.0 1135.3,1057.1 1175.5,1057.3 1215.7,1057.5 1255.9,1056.7 1296.1,1053.2 1336.3,1046.5 1376.5,1036.7 1416.7,1023.7 1456.9,1008.0 1497.1,991.5 1537.3,975.5 1577.6,960.2 1617.8,945.7 1658.0,931.9 1698.2,918.7 1738.4,906.2 1778.6,894.2 1818.8,883.7 1859.0,876.4 1899.2,871.6 1939.4,868.6 1979.6,866.8 2019.8,866.2 2019.8,995.3 1979.6,998.0 1939.4,1005.8 1899.2,1018.1 1859.0,1034.1 1818.8,1053.3 1778.6,1075.0 1738.4,1098.5 1698.2,1123.2 1658.0,1148.4 1617.8,1173.5 1577.6,1197.9 1537.3,1221.0 1497.1,1242.4 1456.9,1261.6 1416.7,1278.1 1376.5,1291.7 1336.3,1302.1 1296.1,1309.2 1255.9,1313.1 1215.7,1314.3 1175.5,1314.3 1135.3,1314.3 1095.1,1314.3 1054.9,1314.3 1014.7,1314.3 974.5,1314.3 934.3,1314.3 894.1,1314.3 853.9,1314.3 813.7,1314.3 773.5,1314.3 733.3,1314.3 693.1,1314.3 652.9,1314.3 612.7,1314.3 572.5,1314.3 532.2,1314.3 492.0,1314.3 451.8,1314.3 411.6,1313.1 371.4,1307.4 331.2,1298.4 291.0,1288.2 250.8,1278.5 210.6,1271.1 170.4,1267.9 130.2,1267.9 90.0,1267.9"/>
  <polyline class="deck" points="90.0,1157.2 130.2,1155.8 170.4,1152.1 210.6,1149.1 250.8,1148.2 291.0,1148.4 331.2,1149.1 371.4,1148.8 411.6,1144.7 451.8,1135.6 492.0,1125.0 532.2,1114.4 572.5,1104.1 612.7,1094.3 652.9,1085.4 693.1,1077.5 733.3,1070.9 773.5,1065.7 813.7,1062.0 853.9,1059.8 894.1,1058.4 934.3,1057.5 974.5,1057.1 1014.7,1057.0 1054.9,1057.0 1095.1,1057.0 1135.3,1057.1 1175.5,1057.3 1215.7,1057.5 1255.9,1056.7 1296.1,1053.2 1336.3,1046.5 1376.5,1036.7 1416.7,1023.7 1456.9,1008.0 1497.1,991.5 1537.3,975.5 1577.6,960.2 1617.8,945.7 1658.0,931.9 1698.2,918.7 1738.4,906.2 1778.6,894.2 1818.8,883.7 1859.0,876.4 1899.2,871.6 1939.4,868.6 1979.6,866.8 2019.8,866.2"/>
  <polyline class="rocker" points="90.0,1267.9 130.2,1267.9 170.4,1267.9 210.6,1271.1 250.8,1278.5 291.0,1288.2 331.2,1298.4 371.4,1307.4 411.6,1313.1 451.8,1314.3 492.0,1314.3 532.2,1314.3 572.5,1314.3 612.7,1314.3 652.9,1314.3 693.1,1314.3 733.3,1314.3 773.5,1314.3 813.7,1314.3 853.9,1314.3 894.1,1314.3 934.3,1314.3 974.5,1314.3 1014.7,1314.3 1054.9,1314.3 1095.1,1314.3 1135.3,1314.3 1175.5,1314.3 1215.7,1314.3 1255.9,1313.1 1296.1,1309.2 1336.3,1302.1 1376.5,1291.7 1416.7,1278.1 1456.9,1261.6 1497.1,1242.4 1537.3,1221.0 1577.6,1197.9 1617.8,1173.5 1658.0,1148.4 1698.2,1123.2 1738.4,1098.5 1778.6,1075.0 1818.8,1053.3 1859.0,1034.1 1899.2,1018.1 1939.4,1005.8 1979.6,998.0 2019.8,995.3"/>
  <text x="90" y="1366.2992070891157" class="small">Generated heuristic. Experimental design aid, not a proven board shape.</text>
</svg>
