<svg xmlns="http://www.w3.org/2000/svg" width="2110mm" height="1261mm" viewBox="0 0 2110 1261">
  <title>downwind-sup-86l foil board template</title>
  <style>
    text { font-family: system-ui, sans-serif; fill: #263238; }
    .small { font-size: 24px; }
    .label { font-size: 30px; font-weight: 650; }
    .outline { fill: #e7f3f1; stroke: #123c46; stroke-width: 4; }
    .rocker-band { fill: #d5eee9; stroke: none; }
    .rocker { fill: none; stroke: #004f63; stroke-width: 8; }
    .guide { stroke: #d05d2d; stroke-width: 3; stroke-dasharray: 12 10; }
    .baseline { stroke: #546e7a; stroke-width: 2; }
  </style>
  <rect width="100%" height="100%" fill="#fbfaf6"/>
  <text x="90" y="48" class="label">Foil Board Toolkit: downwind-sup-86l</text>
  <text x="90" y="84" class="small">Plan outline: 1930 mm x 461 mm. Estimated volume: 86.0 L.</text>

  <polygon class="outline" points="90.0,376.0 170.4,402.9 250.8,426.8 331.2,440.9 411.6,468.2 492.0,493.0 572.5,500.9 652.9,509.7 733.3,524.9 813.7,539.4 894.1,546.6 974.5,547.0 1054.9,547.8 1135.3,549.0 1215.7,550.1 1296.1,551.0 1376.5,551.0 1456.9,538.4 1537.3,514.0 1617.8,487.3 1698.2,467.9 1778.6,460.8 1859.0,432.2 1939.4,394.6 2019.8,376.0 2019.8,265.3 1939.4,246.6 1859.0,209.1 1778.6,180.4 1698.2,173.4 1617.8,153.9 1537.3,127.3 1456.9,102.9 1376.5,90.3 1296.1,90.3 1215.7,91.1 1135.3,92.3 1054.9,93.4 974.5,94.3 894.1,94.7 813.7,101.8 733.3,116.4 652.9,131.5 572.5,140.3 492.0,148.3 411.6,173.0 331.2,200.3 250.8,214.4 170.4,238.3 90.0,265.3 90.0,376.0"/>
  <line class="guide" x1="925.1" y1="90" x2="925.1" y2="551.2"/>
  <line class="guide" x1="969.9" y1="90" x2="969.9" y2="551.2" opacity="0.55"/>
  <text x="937.1" y="128" class="small">foil box centre</text>
  <text x="981.9" y="164" class="small">stance centre</text>

  <text x="90" y="766.25" class="label">Side rocker profile</text>
  <text x="420" y="766.25" class="small">vertical scale x1.4</text>
  <line class="baseline" x1="90" y1="1171.25" x2="2019.8" y2="1171.25"/>
  <polygon class="rocker-band" points="90.0,1124.8 130.2,1124.8 170.4,1124.9 210.6,1128.1 250.8,1135.4 291.0,1145.2 331.2,1155.4 371.4,1164.3 411.6,1170.1 451.8,1171.2 492.0,1171.2 532.2,1171.2 572.5,1171.2 612.7,1171.2 652.9,1171.2 693.1,1171.2 733.3,1171.2 773.5,1171.2 813.7,1171.2 853.9,1171.2 894.1,1171.2 934.3,1171.2 974.5,1171.2 1014.7,1171.2 1054.9,1171.2 1095.1,1171.2 1135.3,1171.2 1175.5,1171.2 1215.7,1171.2 1255.9,1170.0 1296.1,1166.1 1336.3,1159.0 1376.5,1148.6 1416.7,1135.1 1456.9,1118.5 1497.1,1099.4 1537.3,1078.0 1577.6,1054.8 1617.8,1030.4 1658.0,1005.3 1698.2,980.1 1738.4,955.4 1778.6,931.9 1818.8,910.3 1859.0,891.1 1899.2,875.0 1939.4,862.8 1979.6,855.0 2019.8,852.2 2019.8,1171.2 90.0,1171.2"/>
  <polyline class="rocker" points="90.0,1124.8 130.2,1124.8 170.4,1124.9 210.6,1128.1 250.8,1135.4 291.0,1145.2 331.2,1155.4 371.4,1164.3 411.6,1170.1 451.8,1171.2 492.0,1171.2 532.2,1171.2 572.5,1171.2 612.7,1171.2 652.9,1171.2 693.1,1171.2 733.3,1171.2 773.5,1171.2 813.7,1171.2 853.9,1171.2 894.1,1171.2 934.3,1171.2 974.5,1171.2 1014.7,1171.2 1054.9,1171.2 1095.1,1171.2 1135.3,1171.2 1175.5,1171.2 1215.7,1171.2 1255.9,1170.0 1296.1,1166.1 1336.3,1159.0 1376.5,1148.6 1416.7,1135.1 1456.9,1118.5 1497.1,1099.4 1537.3,1078.0 1577.6,1054.8 1617.8,1030.4 1658.0,1005.3 1698.2,980.1 1738.4,955.4 1778.6,931.9 1818.8,910.3 1859.0,891.1 1899.2,875.0 1939.4,862.8 1979.6,855.0 2019.8,852.2"/>
  <text x="90" y="1223.25" class="small">Generated heuristic. Experimental design aid, not a proven board shape.</text>
</svg>
