<svg xmlns="http://www.w3.org/2000/svg" width="1923mm" height="1355mm" viewBox="0 0 1923 1355">
  <title>midlength-wing-85l foil board template</title>
  <style>
    text { font-family: system-ui, sans-serif; fill: #263238; }
    .small { font-size: 24px; }
    .label { font-size: 30px; font-weight: 650; }
    .outline { fill: #e7f3f1; stroke: #123c46; stroke-width: 4; }
    .rocker-band { fill: #d5eee9; stroke: none; }
    .rocker { fill: none; stroke: #004f63; stroke-width: 8; }
    .guide { stroke: #d05d2d; stroke-width: 3; stroke-dasharray: 12 10; }
    .baseline { stroke: #546e7a; stroke-width: 2; }
  </style>
  <rect width="100%" height="100%" fill="#fbfaf6"/>
  <text x="90" y="48" class="label">Foil Board Toolkit: midlength-wing-85l</text>
  <text x="90" y="84" class="small">Plan outline: 1743 mm x 555 mm. Estimated volume: 85.0 L.</text>

  <polygon class="outline" points="90.0,461.7 162.6,491.2 235.2,517.3 307.9,534.3 380.5,567.1 453.1,596.9 525.8,606.2 598.4,611.8 671.0,622.1 743.6,633.4 816.2,642.1 888.9,644.7 961.5,641.9 1034.1,636.9 1106.8,631.7 1179.4,628.4 1252.0,622.9 1324.6,598.9 1397.2,565.9 1469.9,535.8 1542.5,520.3 1615.1,507.3 1687.8,471.8 1760.4,434.6 1833.0,417.3 1833.0,317.4 1760.4,300.2 1687.8,262.9 1615.1,227.4 1542.5,214.5 1469.9,198.9 1397.2,168.8 1324.6,135.9 1252.0,111.9 1179.4,106.3 1106.8,103.1 1034.1,97.9 961.5,92.9 888.9,90.1 816.2,92.6 743.6,101.3 671.0,112.6 598.4,122.9 525.8,128.6 453.1,137.9 380.5,167.7 307.9,200.5 235.2,217.5 162.6,243.6 90.0,273.1 90.0,461.7"/>
  <line class="guide" x1="752.3" y1="90" x2="752.3" y2="644.8"/>
  <line class="guide" x1="797.1" y1="90" x2="797.1" y2="644.8" opacity="0.55"/>
  <text x="764.3" y="128" class="small">foil box centre</text>
  <text x="809.1" y="164" class="small">stance centre</text>

  <text x="90" y="859.75" class="label">Side rocker profile</text>
  <text x="420" y="859.75" class="small">vertical scale x2.4</text>
  <line class="baseline" x1="90" y1="1264.75" x2="1833.0" y2="1264.75"/>
  <polygon class="rocker-band" points="90.0,1207.2 126.3,1207.2 162.6,1207.2 198.9,1211.1 235.2,1220.3 271.6,1232.4 307.9,1245.1 344.2,1256.1 380.5,1263.3 416.8,1264.8 453.1,1264.8 489.4,1264.8 525.8,1264.8 562.1,1264.8 598.4,1264.8 634.7,1264.8 671.0,1264.8 707.3,1264.8 743.6,1264.8 779.9,1264.8 816.2,1264.8 852.6,1264.8 888.9,1264.8 925.2,1264.8 961.5,1264.8 997.8,1264.8 1034.1,1264.8 1070.4,1264.8 1106.8,1264.7 1143.1,1263.4 1179.4,1259.0 1215.7,1251.0 1252.0,1239.2 1288.3,1223.9 1324.6,1205.3 1360.9,1183.6 1397.2,1159.5 1433.6,1133.4 1469.9,1105.8 1506.2,1077.5 1542.5,1049.0 1578.8,1021.2 1615.1,994.7 1651.4,970.2 1687.8,948.6 1724.1,930.4 1760.4,916.6 1796.7,907.8 1833.0,904.8 1833.0,1264.8 90.0,1264.8"/>
  <polyline class="rocker" points="90.0,1207.2 126.3,1207.2 162.6,1207.2 198.9,1211.1 235.2,1220.3 271.6,1232.4 307.9,1245.1 344.2,1256.1 380.5,1263.3 416.8,1264.8 453.1,1264.8 489.4,1264.8 525.8,1264.8 562.1,1264.8 598.4,1264.8 634.7,1264.8 671.0,1264.8 707.3,1264.8 743.6,1264.8 779.9,1264.8 816.2,1264.8 852.6,1264.8 888.9,1264.8 925.2,1264.8 961.5,1264.8 997.8,1264.8 1034.1,1264.8 1070.4,1264.8 1106.8,1264.7 1143.1,1263.4 1179.4,1259.0 1215.7,1251.0 1252.0,1239.2 1288.3,1223.9 1324.6,1205.3 1360.9,1183.6 1397.2,1159.5 1433.6,1133.4 1469.9,1105.8 1506.2,1077.5 1542.5,1049.0 1578.8,1021.2 1615.1,994.7 1651.4,970.2 1687.8,948.6 1724.1,930.4 1760.4,916.6 1796.7,907.8 1833.0,904.8"/>
  <text x="90" y="1316.75" class="small">Generated heuristic. Experimental design aid, not a proven board shape.</text>
</svg>
