<svg xmlns="http://www.w3.org/2000/svg" width="2020mm" height="1405mm" viewBox="0 0 2020 1405">
  <title>midlength-wing-114l foil board template</title>
  <style>
    text { font-family: system-ui, sans-serif; fill: #263238; }
    .small { font-size: 24px; }
    .label { font-size: 30px; font-weight: 650; }
    .outline { fill: #e7f3f1; stroke: #123c46; stroke-width: 4; }
    .rocker-band { fill: #d5eee9; stroke: none; }
    .rocker { fill: none; stroke: #004f63; stroke-width: 8; }
    .guide { stroke: #d05d2d; stroke-width: 3; stroke-dasharray: 12 10; }
    .baseline { stroke: #546e7a; stroke-width: 2; }
  </style>
  <rect width="100%" height="100%" fill="#fbfaf6"/>
  <text x="90" y="48" class="label">Foil Board Toolkit: midlength-wing-114l</text>
  <text x="90" y="84" class="small">Plan outline: 1840 mm x 605 mm. Estimated volume: 114.0 L.</text>

  <polygon class="outline" points="90.0,489.5 166.7,511.3 243.4,550.6 320.1,568.3 396.8,579.0 473.4,602.2 550.1,631.7 626.8,661.2 703.5,684.4 780.2,695.1 856.9,695.2 933.6,695.2 1010.2,695.2 1086.9,695.2 1163.6,695.2 1240.3,695.1 1317.0,680.9 1393.7,650.7 1470.4,613.6 1547.1,578.6 1623.8,555.0 1700.4,546.7 1777.1,513.1 1853.8,469.0 1930.5,447.1 1930.5,338.2 1853.8,316.2 1777.1,272.2 1700.4,238.6 1623.8,230.3 1547.1,206.6 1470.4,171.7 1393.7,134.5 1317.0,104.3 1240.3,90.2 1163.6,90.0 1086.9,90.0 1010.2,90.0 933.6,90.0 856.9,90.0 780.2,90.1 703.5,100.8 626.8,124.0 550.1,153.6 473.4,183.1 396.8,206.3 320.1,217.0 243.4,234.7 166.7,273.9 90.0,295.8 90.0,489.5"/>
  <line class="guide" x1="807.8" y1="90" x2="807.8" y2="695.2"/>
  <line class="guide" x1="854.2" y1="90" x2="854.2" y2="695.2" opacity="0.55"/>
  <text x="819.8" y="128" class="small">foil box centre</text>
  <text x="866.2" y="164" class="small">stance centre</text>

  <text x="90" y="910.25" class="label">Side rocker profile</text>
  <text x="420" y="910.25" class="small">vertical scale x1.4</text>
  <line class="baseline" x1="90" y1="1315.25" x2="1930.5" y2="1315.25"/>
  <polygon class="rocker-band" points="90.0,1280.5 128.3,1280.5 166.7,1280.5 205.0,1282.9 243.4,1288.4 281.7,1295.7 320.1,1303.4 358.4,1310.0 396.8,1314.4 435.1,1315.2 473.4,1315.2 511.8,1315.2 550.1,1315.2 588.5,1315.2 626.8,1315.2 665.2,1315.2 703.5,1315.2 741.8,1315.2 780.2,1315.2 818.5,1315.2 856.9,1315.2 895.2,1315.2 933.6,1315.2 971.9,1315.2 1010.2,1315.2 1048.6,1315.2 1086.9,1315.2 1125.3,1315.2 1163.6,1315.2 1202.0,1314.4 1240.3,1311.6 1278.7,1306.6 1317.0,1299.3 1355.3,1289.8 1393.7,1278.1 1432.0,1264.6 1470.4,1249.5 1508.7,1233.2 1547.1,1216.0 1585.4,1198.3 1623.8,1180.6 1662.1,1163.2 1700.4,1146.6 1738.8,1131.4 1777.1,1117.8 1815.5,1106.5 1853.8,1097.9 1892.2,1092.4 1930.5,1090.5 1930.5,1315.2 90.0,1315.2"/>
  <polyline class="rocker" points="90.0,1280.5 128.3,1280.5 166.7,1280.5 205.0,1282.9 243.4,1288.4 281.7,1295.7 320.1,1303.4 358.4,1310.0 396.8,1314.4 435.1,1315.2 473.4,1315.2 511.8,1315.2 550.1,1315.2 588.5,1315.2 626.8,1315.2 665.2,1315.2 703.5,1315.2 741.8,1315.2 780.2,1315.2 818.5,1315.2 856.9,1315.2 895.2,1315.2 933.6,1315.2 971.9,1315.2 1010.2,1315.2 1048.6,1315.2 1086.9,1315.2 1125.3,1315.2 1163.6,1315.2 1202.0,1314.4 1240.3,1311.6 1278.7,1306.6 1317.0,1299.3 1355.3,1289.8 1393.7,1278.1 1432.0,1264.6 1470.4,1249.5 1508.7,1233.2 1547.1,1216.0 1585.4,1198.3 1623.8,1180.6 1662.1,1163.2 1700.4,1146.6 1738.8,1131.4 1777.1,1117.8 1815.5,1106.5 1853.8,1097.9 1892.2,1092.4 1930.5,1090.5"/>
  <text x="90" y="1367.25" class="small">Generated heuristic. Experimental design aid, not a proven board shape.</text>
</svg>
