<svg xmlns="http://www.w3.org/2000/svg" width="2020mm" height="1405mm" viewBox="0 0 2020 1405">
  <title>midlength-wing-114l foil board template</title>
  <style>
    text { font-family: system-ui, sans-serif; fill: #263238; }
    .small { font-size: 24px; }
    .label { font-size: 30px; font-weight: 650; }
    .outline { fill: #e7f3f1; stroke: #123c46; stroke-width: 4; }
    .rocker-band { fill: #d5eee9; stroke: none; }
    .rocker { fill: none; stroke: #004f63; stroke-width: 8; }
    .guide { stroke: #d05d2d; stroke-width: 3; stroke-dasharray: 12 10; }
    .baseline { stroke: #546e7a; stroke-width: 2; }
  </style>
  <rect width="100%" height="100%" fill="#fbfaf6"/>
  <text x="90" y="48" class="label">Foil Board Toolkit: midlength-wing-114l</text>
  <text x="90" y="84" class="small">Plan outline: 1840 mm x 605 mm. Estimated volume: 114.0 L.</text>

  <polygon class="outline" points="90.0,501.6 166.7,526.6 243.4,563.2 320.1,572.3 396.8,593.3 473.4,622.6 550.1,649.9 626.8,664.5 703.5,666.9 780.2,673.1 856.9,681.5 933.6,689.4 1010.2,694.5 1086.9,694.5 1163.6,689.5 1240.3,682.2 1317.0,675.3 1393.7,671.3 1470.4,660.5 1547.1,621.4 1623.8,572.9 1700.4,536.3 1777.1,523.2 1853.8,481.6 1930.5,453.1 1930.5,332.1 1853.8,303.6 1777.1,262.0 1700.4,249.0 1623.8,212.4 1547.1,163.9 1470.4,124.7 1393.7,114.0 1317.0,110.0 1240.3,103.0 1163.6,95.7 1086.9,90.8 1010.2,90.7 933.6,95.8 856.9,103.8 780.2,112.1 703.5,118.4 626.8,120.8 550.1,135.4 473.4,162.6 396.8,192.0 320.1,212.9 243.4,222.0 166.7,258.6 90.0,283.7 90.0,501.6"/>
  <line class="guide" x1="807.8" y1="90" x2="807.8" y2="695.2"/>
  <line class="guide" x1="854.2" y1="90" x2="854.2" y2="695.2" opacity="0.55"/>
  <text x="819.8" y="128" class="small">foil box centre</text>
  <text x="866.2" y="164" class="small">stance centre</text>

  <text x="90" y="910.25" class="label">Side rocker profile</text>
  <text x="420" y="910.25" class="small">vertical scale x1.4</text>
  <line class="baseline" x1="90" y1="1315.25" x2="1930.5" y2="1315.25"/>
  <polygon class="rocker-band" points="90.0,1280.5 128.3,1280.5 166.7,1280.5 205.0,1282.9 243.4,1288.4 281.7,1295.7 320.1,1303.4 358.4,1310.0 396.8,1314.4 435.1,1315.2 473.4,1315.2 511.8,1315.2 550.1,1315.2 588.5,1315.2 626.8,1315.2 665.2,1315.2 703.5,1315.2 741.8,1315.2 780.2,1315.2 818.5,1315.2 856.9,1315.2 895.2,1315.2 933.6,1315.2 971.9,1315.2 1010.2,1315.2 1048.6,1315.2 1086.9,1315.2 1125.3,1315.2 1163.6,1315.2 1202.0,1314.4 1240.3,1311.6 1278.7,1306.6 1317.0,1299.3 1355.3,1289.8 1393.7,1278.1 1432.0,1264.6 1470.4,1249.5 1508.7,1233.2 1547.1,1216.0 1585.4,1198.3 1623.8,1180.6 1662.1,1163.2 1700.4,1146.6 1738.8,1131.4 1777.1,1117.8 1815.5,1106.5 1853.8,1097.9 1892.2,1092.4 1930.5,1090.5 1930.5,1315.2 90.0,1315.2"/>
  <polyline class="rocker" points="90.0,1280.5 128.3,1280.5 166.7,1280.5 205.0,1282.9 243.4,1288.4 281.7,1295.7 320.1,1303.4 358.4,1310.0 396.8,1314.4 435.1,1315.2 473.4,1315.2 511.8,1315.2 550.1,1315.2 588.5,1315.2 626.8,1315.2 665.2,1315.2 703.5,1315.2 741.8,1315.2 780.2,1315.2 818.5,1315.2 856.9,1315.2 895.2,1315.2 933.6,1315.2 971.9,1315.2 1010.2,1315.2 1048.6,1315.2 1086.9,1315.2 1125.3,1315.2 1163.6,1315.2 1202.0,1314.4 1240.3,1311.6 1278.7,1306.6 1317.0,1299.3 1355.3,1289.8 1393.7,1278.1 1432.0,1264.6 1470.4,1249.5 1508.7,1233.2 1547.1,1216.0 1585.4,1198.3 1623.8,1180.6 1662.1,1163.2 1700.4,1146.6 1738.8,1131.4 1777.1,1117.8 1815.5,1106.5 1853.8,1097.9 1892.2,1092.4 1930.5,1090.5"/>
  <text x="90" y="1367.25" class="small">Generated heuristic. Experimental design aid, not a proven board shape.</text>
</svg>
