<svg xmlns="http://www.w3.org/2000/svg" width="2020mm" height="1450mm" viewBox="0 0 2020 1450">
  <title>midlength-wing-114l foil board template</title>
  <style>
    text { font-family: system-ui, sans-serif; fill: #263238; }
    .small { font-size: 24px; }
    .label { font-size: 30px; font-weight: 650; }
    .outline { fill: #e7f3f1; stroke: #123c46; stroke-width: 4; }
    .rocker-band { fill: #d5eee9; stroke: none; }
    .rocker { fill: none; stroke: #004f63; stroke-width: 8; }
    .deck { fill: none; stroke: #123c46; stroke-width: 5; }
    .guide { stroke: #d05d2d; stroke-width: 3; stroke-dasharray: 12 10; }
    .hardware { fill: none; stroke: #7d3c98; stroke-width: 4; }
    .stance { stroke: #546e7a; stroke-width: 2; stroke-dasharray: 8 9; }
    .baseline { stroke: #546e7a; stroke-width: 2; }
  </style>
  <rect width="100%" height="100%" fill="#fbfaf6"/>
  <text x="90" y="48" class="label">Foil Board Toolkit: midlength-wing-114l</text>
  <text x="90" y="84" class="small">Plan outline: 1840 x 605 x 166 mm. Estimated volume: 114.0 L.</text>

  <polygon class="outline" points="90.0,483.4 128.3,486.4 166.7,499.1 205.0,520.0 243.4,541.9 281.7,555.2 320.1,557.4 358.4,563.5 396.8,573.5 435.1,586.6 473.4,601.8 511.8,618.2 550.1,634.8 588.5,650.8 626.8,665.3 665.2,677.6 703.5,686.9 741.8,692.9 780.2,695.2 818.5,695.2 856.9,695.2 895.2,695.2 933.6,695.2 971.9,695.2 1010.2,695.2 1048.6,695.2 1086.9,695.2 1125.3,695.2 1163.6,695.2 1202.0,695.2 1240.3,695.2 1278.7,695.1 1317.0,690.8 1355.3,680.6 1393.7,665.3 1432.0,646.1 1470.4,624.7 1508.7,602.6 1547.1,581.7 1585.4,563.7 1623.8,550.7 1662.1,544.3 1700.4,540.0 1738.8,524.0 1777.1,501.4 1815.5,477.8 1853.8,458.5 1892.2,447.0 1930.5,444.1 1930.5,341.2 1892.2,338.2 1853.8,326.7 1815.5,307.4 1777.1,283.9 1738.8,261.2 1700.4,245.3 1662.1,241.0 1623.8,234.6 1585.4,221.5 1547.1,203.6 1508.7,182.7 1470.4,160.6 1432.0,139.1 1393.7,120.0 1355.3,104.7 1317.0,94.4 1278.7,90.2 1240.3,90.0 1202.0,90.0 1163.6,90.0 1125.3,90.0 1086.9,90.0 1048.6,90.0 1010.2,90.0 971.9,90.0 933.6,90.0 895.2,90.0 856.9,90.0 818.5,90.0 780.2,90.1 741.8,92.4 703.5,98.3 665.2,107.7 626.8,120.0 588.5,134.5 550.1,150.5 511.8,167.1 473.4,183.5 435.1,198.7 396.8,211.7 358.4,221.8 320.1,227.8 281.7,230.0 243.4,243.3 205.0,265.3 166.7,286.1 128.3,298.9 90.0,301.8 90.0,483.4"/>
  <rect class="hardware" x="647.8" y="347.6" width="320.0" height="90.0" rx="0"/>
  <line class="guide" x1="807.8" y1="90" x2="807.8" y2="695.2"/>
  <line class="guide" x1="854.2" y1="90" x2="854.2" y2="695.2" opacity="0.55"/>
  <line class="stance" x1="564.2" y1="90" x2="564.2" y2="695.2"/>
  <line class="stance" x1="1144.2" y1="90" x2="1144.2" y2="695.2"/>
  <text x="819.8" y="128" class="small">foil box centre</text>
  <text x="866.2" y="164" class="small">stance centre</text>
  <text x="647.8" y="331.6" class="small">track envelope 320 x 90 mm</text>

  <text x="90" y="910.25" class="label">Side rocker profile</text>
  <text x="420" y="910.25" class="small">vertical scale x1.4. Stock envelope 1890 x 640 x 260 mm.</text>
  <line class="baseline" x1="90" y1="1359.845467336036" x2="1930.5" y2="1359.845467336036"/>
  <polygon class="rocker-band" points="90.0,1188.0 128.3,1186.3 166.7,1182.0 205.0,1178.0 243.4,1175.7 281.7,1174.8 320.1,1174.3 358.4,1172.1 396.8,1167.0 435.1,1158.1 473.4,1148.5 511.8,1139.3 550.1,1130.8 588.5,1123.3 626.8,1117.1 665.2,1112.4 703.5,1109.3 741.8,1107.7 780.2,1107.1 818.5,1106.8 856.9,1106.5 895.2,1106.3 933.6,1106.2 971.9,1106.1 1010.2,1106.1 1048.6,1106.1 1086.9,1106.2 1125.3,1106.3 1163.6,1106.5 1202.0,1105.9 1240.3,1103.5 1278.7,1098.9 1317.0,1093.2 1355.3,1087.2 1393.7,1081.0 1432.0,1074.7 1470.4,1068.3 1508.7,1061.8 1547.1,1055.0 1585.4,1047.9 1623.8,1040.6 1662.1,1033.1 1700.4,1025.9 1738.8,1020.4 1777.1,1016.4 1815.5,1013.5 1853.8,1011.6 1892.2,1010.5 1930.5,1010.2 1930.5,1135.1 1892.2,1137.0 1853.8,1142.5 1815.5,1151.1 1777.1,1162.4 1738.8,1176.0 1700.4,1191.2 1662.1,1207.8 1623.8,1225.2 1585.4,1242.9 1547.1,1260.6 1508.7,1277.8 1470.4,1294.1 1432.0,1309.2 1393.7,1322.7 1355.3,1334.4 1317.0,1343.9 1278.7,1351.2 1240.3,1356.2 1202.0,1359.0 1163.6,1359.8 1125.3,1359.8 1086.9,1359.8 1048.6,1359.8 1010.2,1359.8 971.9,1359.8 933.6,1359.8 895.2,1359.8 856.9,1359.8 818.5,1359.8 780.2,1359.8 741.8,1359.8 703.5,1359.8 665.2,1359.8 626.8,1359.8 588.5,1359.8 550.1,1359.8 511.8,1359.8 473.4,1359.8 435.1,1359.8 396.8,1359.0 358.4,1354.6 320.1,1348.0 281.7,1340.3 243.4,1333.0 205.0,1327.5 166.7,1325.1 128.3,1325.0 90.0,1325.0"/>
  <polyline class="deck" points="90.0,1188.0 128.3,1186.3 166.7,1182.0 205.0,1178.0 243.4,1175.7 281.7,1174.8 320.1,1174.3 358.4,1172.1 396.8,1167.0 435.1,1158.1 473.4,1148.5 511.8,1139.3 550.1,1130.8 588.5,1123.3 626.8,1117.1 665.2,1112.4 703.5,1109.3 741.8,1107.7 780.2,1107.1 818.5,1106.8 856.9,1106.5 895.2,1106.3 933.6,1106.2 971.9,1106.1 1010.2,1106.1 1048.6,1106.1 1086.9,1106.2 1125.3,1106.3 1163.6,1106.5 1202.0,1105.9 1240.3,1103.5 1278.7,1098.9 1317.0,1093.2 1355.3,1087.2 1393.7,1081.0 1432.0,1074.7 1470.4,1068.3 1508.7,1061.8 1547.1,1055.0 1585.4,1047.9 1623.8,1040.6 1662.1,1033.1 1700.4,1025.9 1738.8,1020.4 1777.1,1016.4 1815.5,1013.5 1853.8,1011.6 1892.2,1010.5 1930.5,1010.2"/>
  <polyline class="rocker" points="90.0,1325.0 128.3,1325.0 166.7,1325.1 205.0,1327.5 243.4,1333.0 281.7,1340.3 320.1,1348.0 358.4,1354.6 396.8,1359.0 435.1,1359.8 473.4,1359.8 511.8,1359.8 550.1,1359.8 588.5,1359.8 626.8,1359.8 665.2,1359.8 703.5,1359.8 741.8,1359.8 780.2,1359.8 818.5,1359.8 856.9,1359.8 895.2,1359.8 933.6,1359.8 971.9,1359.8 1010.2,1359.8 1048.6,1359.8 1086.9,1359.8 1125.3,1359.8 1163.6,1359.8 1202.0,1359.0 1240.3,1356.2 1278.7,1351.2 1317.0,1343.9 1355.3,1334.4 1393.7,1322.7 1432.0,1309.2 1470.4,1294.1 1508.7,1277.8 1547.1,1260.6 1585.4,1242.9 1623.8,1225.2 1662.1,1207.8 1700.4,1191.2 1738.8,1176.0 1777.1,1162.4 1815.5,1151.1 1853.8,1142.5 1892.2,1137.0 1930.5,1135.1"/>
  <text x="90" y="1411.845467336036" class="small">Generated heuristic. Experimental design aid, not a proven board shape.</text>
</svg>
