<svg xmlns="http://www.w3.org/2000/svg" width="1923mm" height="1377mm" viewBox="0 0 1923 1377">
  <title>midlength-wing-85l foil board template</title>
  <style>
    text { font-family: system-ui, sans-serif; fill: #263238; }
    .small { font-size: 24px; }
    .label { font-size: 30px; font-weight: 650; }
    .outline { fill: #e7f3f1; stroke: #123c46; stroke-width: 4; }
    .rocker-band { fill: #d5eee9; stroke: none; }
    .rocker { fill: none; stroke: #004f63; stroke-width: 8; }
    .deck { fill: none; stroke: #123c46; stroke-width: 5; }
    .guide { stroke: #d05d2d; stroke-width: 3; stroke-dasharray: 12 10; }
    .hardware { fill: none; stroke: #7d3c98; stroke-width: 4; }
    .stance { stroke: #546e7a; stroke-width: 2; stroke-dasharray: 8 9; }
    .baseline { stroke: #546e7a; stroke-width: 2; }
  </style>
  <rect width="100%" height="100%" fill="#fbfaf6"/>
  <text x="90" y="48" class="label">Foil Board Toolkit: midlength-wing-85l</text>
  <text x="90" y="84" class="small">Plan outline: 1743 x 555 x 154 mm. Estimated volume: 85.0 L.</text>

  <polygon class="outline" points="90.0,461.7 126.3,465.1 162.6,477.8 198.9,497.0 235.2,516.2 271.6,527.6 307.9,529.9 344.2,537.1 380.5,548.8 416.8,563.5 453.1,579.9 489.4,596.5 525.8,612.1 562.1,625.5 598.4,635.7 634.7,642.2 671.0,644.7 707.3,644.8 743.6,644.8 779.9,644.8 816.2,644.8 852.6,644.8 888.9,644.8 925.2,644.8 961.5,644.8 997.8,644.8 1034.1,644.8 1070.4,644.8 1106.8,644.8 1143.1,644.7 1179.4,642.5 1215.7,636.2 1252.0,626.0 1288.3,612.6 1324.6,596.8 1360.9,579.6 1397.2,562.4 1433.6,546.2 1469.9,532.5 1506.2,522.5 1542.5,517.5 1578.8,514.7 1615.1,503.7 1651.4,486.9 1687.8,467.7 1724.1,449.2 1760.4,434.4 1796.7,425.4 1833.0,422.9 1833.0,311.9 1796.7,309.4 1760.4,300.3 1724.1,285.5 1687.8,267.1 1651.4,247.9 1615.1,231.0 1578.8,220.0 1542.5,217.3 1506.2,212.3 1469.9,202.3 1433.6,188.5 1397.2,172.4 1360.9,155.1 1324.6,138.0 1288.3,122.2 1252.0,108.7 1215.7,98.6 1179.4,92.3 1143.1,90.0 1106.8,90.0 1070.4,90.0 1034.1,90.0 997.8,90.0 961.5,90.0 925.2,90.0 888.9,90.0 852.6,90.0 816.2,90.0 779.9,90.0 743.6,90.0 707.3,90.0 671.0,90.1 634.7,92.6 598.4,99.0 562.1,109.3 525.8,122.7 489.4,138.3 453.1,154.9 416.8,171.2 380.5,185.9 344.2,197.6 307.9,204.8 271.6,207.2 235.2,218.6 198.9,237.8 162.6,256.9 126.3,269.6 90.0,273.1 90.0,461.7"/>
  <rect class="hardware" x="592.3" y="322.4" width="320.0" height="90.0" rx="0"/>
  <line class="guide" x1="752.3" y1="90" x2="752.3" y2="644.8"/>
  <line class="guide" x1="797.1" y1="90" x2="797.1" y2="644.8" opacity="0.55"/>
  <line class="stance" x1="517.1" y1="90" x2="517.1" y2="644.8"/>
  <line class="stance" x1="1077.1" y1="90" x2="1077.1" y2="644.8"/>
  <text x="764.3" y="128" class="small">foil box centre</text>
  <text x="809.1" y="164" class="small">stance centre</text>
  <text x="592.3" y="306.4" class="small">track envelope 320 x 90 mm</text>

  <text x="90" y="859.75" class="label">Side rocker profile</text>
  <text x="420" y="859.75" class="small">vertical scale x1.4. Stock envelope 1790 x 590 x 240 mm.</text>
  <line class="baseline" x1="90" y1="1286.9953866308156" x2="1833.0" y2="1286.9953866308156"/>
  <polygon class="rocker-band" points="90.0,1126.6 126.3,1124.8 162.6,1120.2 198.9,1115.5 235.2,1112.2 271.6,1110.1 307.9,1108.3 344.2,1104.9 380.5,1098.9 416.8,1089.8 453.1,1080.5 489.4,1072.0 525.8,1064.9 562.1,1059.3 598.4,1055.6 634.7,1053.6 671.0,1053.0 707.3,1052.6 743.6,1052.3 779.9,1052.0 816.2,1051.8 852.6,1051.6 888.9,1051.5 925.2,1051.4 961.5,1051.4 997.8,1051.4 1034.1,1051.5 1070.4,1051.6 1106.8,1051.8 1143.1,1051.7 1179.4,1050.9 1215.7,1049.4 1252.0,1047.2 1288.3,1044.0 1324.6,1040.0 1360.9,1035.1 1397.2,1029.3 1433.6,1022.6 1469.9,1015.1 1506.2,1007.0 1542.5,998.3 1578.8,989.5 1615.1,981.8 1651.4,975.2 1687.8,969.7 1724.1,965.4 1760.4,962.2 1796.7,960.3 1833.0,959.7 1833.0,1076.7 1796.7,1078.5 1760.4,1083.7 1724.1,1091.8 1687.8,1102.3 1651.4,1115.0 1615.1,1129.3 1578.8,1144.8 1542.5,1161.0 1506.2,1177.6 1469.9,1194.2 1433.6,1210.3 1397.2,1225.5 1360.9,1239.6 1324.6,1252.3 1288.3,1263.2 1252.0,1272.1 1215.7,1278.9 1179.4,1283.6 1143.1,1286.2 1106.8,1287.0 1070.4,1287.0 1034.1,1287.0 997.8,1287.0 961.5,1287.0 925.2,1287.0 888.9,1287.0 852.6,1287.0 816.2,1287.0 779.9,1287.0 743.6,1287.0 707.3,1287.0 671.0,1287.0 634.7,1287.0 598.4,1287.0 562.1,1287.0 525.8,1287.0 489.4,1287.0 453.1,1287.0 416.8,1287.0 380.5,1286.2 344.2,1282.2 307.9,1276.1 271.6,1269.1 235.2,1262.4 198.9,1257.3 162.6,1255.1 126.3,1255.1 90.0,1255.1"/>
  <polyline class="deck" points="90.0,1126.6 126.3,1124.8 162.6,1120.2 198.9,1115.5 235.2,1112.2 271.6,1110.1 307.9,1108.3 344.2,1104.9 380.5,1098.9 416.8,1089.8 453.1,1080.5 489.4,1072.0 525.8,1064.9 562.1,1059.3 598.4,1055.6 634.7,1053.6 671.0,1053.0 707.3,1052.6 743.6,1052.3 779.9,1052.0 816.2,1051.8 852.6,1051.6 888.9,1051.5 925.2,1051.4 961.5,1051.4 997.8,1051.4 1034.1,1051.5 1070.4,1051.6 1106.8,1051.8 1143.1,1051.7 1179.4,1050.9 1215.7,1049.4 1252.0,1047.2 1288.3,1044.0 1324.6,1040.0 1360.9,1035.1 1397.2,1029.3 1433.6,1022.6 1469.9,1015.1 1506.2,1007.0 1542.5,998.3 1578.8,989.5 1615.1,981.8 1651.4,975.2 1687.8,969.7 1724.1,965.4 1760.4,962.2 1796.7,960.3 1833.0,959.7"/>
  <polyline class="rocker" points="90.0,1255.1 126.3,1255.1 162.6,1255.1 198.9,1257.3 235.2,1262.4 271.6,1269.1 307.9,1276.1 344.2,1282.2 380.5,1286.2 416.8,1287.0 453.1,1287.0 489.4,1287.0 525.8,1287.0 562.1,1287.0 598.4,1287.0 634.7,1287.0 671.0,1287.0 707.3,1287.0 743.6,1287.0 779.9,1287.0 816.2,1287.0 852.6,1287.0 888.9,1287.0 925.2,1287.0 961.5,1287.0 997.8,1287.0 1034.1,1287.0 1070.4,1287.0 1106.8,1287.0 1143.1,1286.2 1179.4,1283.6 1215.7,1278.9 1252.0,1272.1 1288.3,1263.2 1324.6,1252.3 1360.9,1239.6 1397.2,1225.5 1433.6,1210.3 1469.9,1194.2 1506.2,1177.6 1542.5,1161.0 1578.8,1144.8 1615.1,1129.3 1651.4,1115.0 1687.8,1102.3 1724.1,1091.8 1760.4,1083.7 1796.7,1078.5 1833.0,1076.7"/>
  <text x="90" y="1338.9953866308156" class="small">Generated heuristic. Experimental design aid, not a proven board shape.</text>
</svg>
