<svg xmlns="http://www.w3.org/2000/svg" width="1923mm" height="1355mm" viewBox="0 0 1923 1355">
  <title>midlength-wing-85l foil board template</title>
  <style>
    text { font-family: system-ui, sans-serif; fill: #263238; }
    .small { font-size: 24px; }
    .label { font-size: 30px; font-weight: 650; }
    .outline { fill: #e7f3f1; stroke: #123c46; stroke-width: 4; }
    .rocker-band { fill: #d5eee9; stroke: none; }
    .rocker { fill: none; stroke: #004f63; stroke-width: 8; }
    .guide { stroke: #d05d2d; stroke-width: 3; stroke-dasharray: 12 10; }
    .hardware { fill: none; stroke: #7d3c98; stroke-width: 4; }
    .stance { stroke: #546e7a; stroke-width: 2; stroke-dasharray: 8 9; }
    .baseline { stroke: #546e7a; stroke-width: 2; }
  </style>
  <rect width="100%" height="100%" fill="#fbfaf6"/>
  <text x="90" y="48" class="label">Foil Board Toolkit: midlength-wing-85l</text>
  <text x="90" y="84" class="small">Plan outline: 1743 mm x 555 mm. Estimated volume: 85.0 L.</text>

  <polygon class="outline" points="90.0,461.7 126.3,465.1 162.6,477.8 198.9,497.0 235.2,516.2 271.6,527.6 307.9,529.9 344.2,537.1 380.5,548.8 416.8,563.5 453.1,579.9 489.4,596.5 525.8,612.1 562.1,625.5 598.4,635.7 634.7,642.2 671.0,644.7 707.3,644.8 743.6,644.8 779.9,644.8 816.2,644.8 852.6,644.8 888.9,644.8 925.2,644.8 961.5,644.8 997.8,644.8 1034.1,644.8 1070.4,644.8 1106.8,644.8 1143.1,644.7 1179.4,642.5 1215.7,636.2 1252.0,626.0 1288.3,612.6 1324.6,596.8 1360.9,579.6 1397.2,562.4 1433.6,546.2 1469.9,532.5 1506.2,522.5 1542.5,517.5 1578.8,514.7 1615.1,503.7 1651.4,486.9 1687.8,467.7 1724.1,449.2 1760.4,434.4 1796.7,425.4 1833.0,422.9 1833.0,311.9 1796.7,309.4 1760.4,300.3 1724.1,285.5 1687.8,267.1 1651.4,247.9 1615.1,231.0 1578.8,220.0 1542.5,217.3 1506.2,212.3 1469.9,202.3 1433.6,188.5 1397.2,172.4 1360.9,155.1 1324.6,138.0 1288.3,122.2 1252.0,108.7 1215.7,98.6 1179.4,92.3 1143.1,90.0 1106.8,90.0 1070.4,90.0 1034.1,90.0 997.8,90.0 961.5,90.0 925.2,90.0 888.9,90.0 852.6,90.0 816.2,90.0 779.9,90.0 743.6,90.0 707.3,90.0 671.0,90.1 634.7,92.6 598.4,99.0 562.1,109.3 525.8,122.7 489.4,138.3 453.1,154.9 416.8,171.2 380.5,185.9 344.2,197.6 307.9,204.8 271.6,207.2 235.2,218.6 198.9,237.8 162.6,256.9 126.3,269.6 90.0,273.1 90.0,461.7"/>
  <rect class="hardware" x="592.3" y="322.4" width="320.0" height="90.0" rx="0"/>
  <line class="guide" x1="752.3" y1="90" x2="752.3" y2="644.8"/>
  <line class="guide" x1="797.1" y1="90" x2="797.1" y2="644.8" opacity="0.55"/>
  <line class="stance" x1="517.1" y1="90" x2="517.1" y2="644.8"/>
  <line class="stance" x1="1077.1" y1="90" x2="1077.1" y2="644.8"/>
  <text x="764.3" y="128" class="small">foil box centre</text>
  <text x="809.1" y="164" class="small">stance centre</text>
  <text x="592.3" y="306.4" class="small">track envelope 320 x 90 mm</text>

  <text x="90" y="859.75" class="label">Side rocker profile</text>
  <text x="420" y="859.75" class="small">vertical scale x1.4</text>
  <line class="baseline" x1="90" y1="1264.75" x2="1833.0" y2="1264.75"/>
  <polygon class="rocker-band" points="90.0,1232.8 126.3,1232.8 162.6,1232.9 198.9,1235.1 235.2,1240.1 271.6,1246.8 307.9,1253.8 344.2,1260.0 380.5,1263.9 416.8,1264.8 453.1,1264.8 489.4,1264.8 525.8,1264.8 562.1,1264.8 598.4,1264.8 634.7,1264.8 671.0,1264.8 707.3,1264.8 743.6,1264.8 779.9,1264.8 816.2,1264.8 852.6,1264.8 888.9,1264.8 925.2,1264.8 961.5,1264.8 997.8,1264.8 1034.1,1264.8 1070.4,1264.8 1106.8,1264.7 1143.1,1264.0 1179.4,1261.4 1215.7,1256.7 1252.0,1249.8 1288.3,1240.9 1324.6,1230.0 1360.9,1217.4 1397.2,1203.3 1433.6,1188.0 1469.9,1171.9 1506.2,1155.4 1542.5,1138.8 1578.8,1122.5 1615.1,1107.0 1651.4,1092.7 1687.8,1080.1 1724.1,1069.5 1760.4,1061.4 1796.7,1056.3 1833.0,1054.5 1833.0,1264.8 90.0,1264.8"/>
  <polyline class="rocker" points="90.0,1232.8 126.3,1232.8 162.6,1232.9 198.9,1235.1 235.2,1240.1 271.6,1246.8 307.9,1253.8 344.2,1260.0 380.5,1263.9 416.8,1264.8 453.1,1264.8 489.4,1264.8 525.8,1264.8 562.1,1264.8 598.4,1264.8 634.7,1264.8 671.0,1264.8 707.3,1264.8 743.6,1264.8 779.9,1264.8 816.2,1264.8 852.6,1264.8 888.9,1264.8 925.2,1264.8 961.5,1264.8 997.8,1264.8 1034.1,1264.8 1070.4,1264.8 1106.8,1264.7 1143.1,1264.0 1179.4,1261.4 1215.7,1256.7 1252.0,1249.8 1288.3,1240.9 1324.6,1230.0 1360.9,1217.4 1397.2,1203.3 1433.6,1188.0 1469.9,1171.9 1506.2,1155.4 1542.5,1138.8 1578.8,1122.5 1615.1,1107.0 1651.4,1092.7 1687.8,1080.1 1724.1,1069.5 1760.4,1061.4 1796.7,1056.3 1833.0,1054.5"/>
  <text x="90" y="1316.75" class="small">Generated heuristic. Experimental design aid, not a proven board shape.</text>
</svg>
