<svg xmlns="http://www.w3.org/2000/svg" width="1923mm" height="1355mm" viewBox="0 0 1923 1355">
  <title>midlength-wing-85l foil board template</title>
  <style>
    text { font-family: system-ui, sans-serif; fill: #263238; }
    .small { font-size: 24px; }
    .label { font-size: 30px; font-weight: 650; }
    .outline { fill: #e7f3f1; stroke: #123c46; stroke-width: 4; }
    .rocker-band { fill: #d5eee9; stroke: none; }
    .rocker { fill: none; stroke: #004f63; stroke-width: 8; }
    .guide { stroke: #d05d2d; stroke-width: 3; stroke-dasharray: 12 10; }
    .baseline { stroke: #546e7a; stroke-width: 2; }
  </style>
  <rect width="100%" height="100%" fill="#fbfaf6"/>
  <text x="90" y="48" class="label">Foil Board Toolkit: midlength-wing-85l</text>
  <text x="90" y="84" class="small">Plan outline: 1743 mm x 555 mm. Estimated volume: 85.0 L.</text>

  <polygon class="outline" points="90.0,472.8 162.6,491.3 235.2,524.5 307.9,539.5 380.5,551.6 453.1,576.7 525.8,606.3 598.4,631.7 671.0,644.5 743.6,644.8 816.2,644.8 888.9,644.8 961.5,644.8 1034.1,644.8 1106.8,644.7 1179.4,635.0 1252.0,613.1 1324.6,584.9 1397.2,556.5 1469.9,533.8 1542.5,522.9 1615.1,511.1 1687.8,478.5 1760.4,444.3 1833.0,428.4 1833.0,306.4 1760.4,290.5 1687.8,256.3 1615.1,223.6 1542.5,211.8 1469.9,201.0 1397.2,178.3 1324.6,149.8 1252.0,121.6 1179.4,99.7 1106.8,90.1 1034.1,90.0 961.5,90.0 888.9,90.0 816.2,90.0 743.6,90.0 671.0,90.3 598.4,103.0 525.8,128.5 453.1,158.1 380.5,183.2 307.9,195.2 235.2,210.3 162.6,243.5 90.0,262.0 90.0,472.8"/>
  <line class="guide" x1="752.3" y1="90" x2="752.3" y2="644.8"/>
  <line class="guide" x1="797.1" y1="90" x2="797.1" y2="644.8" opacity="0.55"/>
  <text x="764.3" y="128" class="small">foil box centre</text>
  <text x="809.1" y="164" class="small">stance centre</text>

  <text x="90" y="859.75" class="label">Side rocker profile</text>
  <text x="420" y="859.75" class="small">vertical scale x1.4</text>
  <line class="baseline" x1="90" y1="1264.75" x2="1833.0" y2="1264.75"/>
  <polygon class="rocker-band" points="90.0,1232.8 126.3,1232.8 162.6,1232.9 198.9,1235.1 235.2,1240.1 271.6,1246.8 307.9,1253.8 344.2,1260.0 380.5,1263.9 416.8,1264.8 453.1,1264.8 489.4,1264.8 525.8,1264.8 562.1,1264.8 598.4,1264.8 634.7,1264.8 671.0,1264.8 707.3,1264.8 743.6,1264.8 779.9,1264.8 816.2,1264.8 852.6,1264.8 888.9,1264.8 925.2,1264.8 961.5,1264.8 997.8,1264.8 1034.1,1264.8 1070.4,1264.8 1106.8,1264.7 1143.1,1264.0 1179.4,1261.4 1215.7,1256.7 1252.0,1249.8 1288.3,1240.9 1324.6,1230.0 1360.9,1217.4 1397.2,1203.3 1433.6,1188.0 1469.9,1171.9 1506.2,1155.4 1542.5,1138.8 1578.8,1122.5 1615.1,1107.0 1651.4,1092.7 1687.8,1080.1 1724.1,1069.5 1760.4,1061.4 1796.7,1056.3 1833.0,1054.5 1833.0,1264.8 90.0,1264.8"/>
  <polyline class="rocker" points="90.0,1232.8 126.3,1232.8 162.6,1232.9 198.9,1235.1 235.2,1240.1 271.6,1246.8 307.9,1253.8 344.2,1260.0 380.5,1263.9 416.8,1264.8 453.1,1264.8 489.4,1264.8 525.8,1264.8 562.1,1264.8 598.4,1264.8 634.7,1264.8 671.0,1264.8 707.3,1264.8 743.6,1264.8 779.9,1264.8 816.2,1264.8 852.6,1264.8 888.9,1264.8 925.2,1264.8 961.5,1264.8 997.8,1264.8 1034.1,1264.8 1070.4,1264.8 1106.8,1264.7 1143.1,1264.0 1179.4,1261.4 1215.7,1256.7 1252.0,1249.8 1288.3,1240.9 1324.6,1230.0 1360.9,1217.4 1397.2,1203.3 1433.6,1188.0 1469.9,1171.9 1506.2,1155.4 1542.5,1138.8 1578.8,1122.5 1615.1,1107.0 1651.4,1092.7 1687.8,1080.1 1724.1,1069.5 1760.4,1061.4 1796.7,1056.3 1833.0,1054.5"/>
  <text x="90" y="1316.75" class="small">Generated heuristic. Experimental design aid, not a proven board shape.</text>
</svg>
