<svg xmlns="http://www.w3.org/2000/svg" width="1188mm" height="1203mm" viewBox="0 0 1188 1203">
  <title>pump-13l foil board template</title>
  <style>
    text { font-family: system-ui, sans-serif; fill: #263238; }
    .small { font-size: 24px; }
    .label { font-size: 30px; font-weight: 650; }
    .outline { fill: #e7f3f1; stroke: #123c46; stroke-width: 4; }
    .rocker-band { fill: #d5eee9; stroke: none; }
    .rocker { fill: none; stroke: #004f63; stroke-width: 8; }
    .guide { stroke: #d05d2d; stroke-width: 3; stroke-dasharray: 12 10; }
    .baseline { stroke: #546e7a; stroke-width: 2; }
  </style>
  <rect width="100%" height="100%" fill="#fbfaf6"/>
  <text x="90" y="48" class="label">Foil Board Toolkit: pump-13l</text>
  <text x="90" y="84" class="small">Plan outline: 1008 mm x 403 mm. Estimated volume: 13.0 L.</text>

  <polygon class="outline" points="90.0,416.6 132.0,428.7 174.0,446.5 216.1,451.0 258.1,461.3 300.1,475.1 342.1,486.2 384.1,489.2 426.1,489.7 468.2,490.6 510.2,491.6 552.2,492.5 594.2,493.1 636.2,492.2 678.2,485.9 720.2,476.3 762.3,466.3 804.3,459.0 846.3,456.2 888.3,442.1 930.3,419.2 972.4,400.4 1014.4,393.9 1056.4,375.1 1098.4,362.2 1098.4,221.0 1056.4,208.1 1014.4,189.3 972.4,182.8 930.3,164.0 888.3,141.1 846.3,127.0 804.3,124.2 762.3,116.9 720.2,106.9 678.2,97.3 636.2,91.0 594.2,90.1 552.2,90.7 510.2,91.6 468.2,92.6 426.1,93.5 384.1,94.0 342.1,97.0 300.1,108.1 258.1,121.9 216.1,132.2 174.0,136.7 132.0,154.5 90.0,166.6 90.0,416.6"/>
  <line class="guide" x1="468.8" y1="90" x2="468.8" y2="493.2"/>
  <line class="guide" x1="502.4" y1="90" x2="502.4" y2="493.2" opacity="0.55"/>
  <text x="480.8" y="128" class="small">foil box centre</text>
  <text x="514.4" y="164" class="small">stance centre</text>

  <text x="90" y="708.2" class="label">Side rocker profile</text>
  <text x="420" y="708.2" class="small">vertical scale x1.4</text>
  <line class="baseline" x1="90" y1="1113.2" x2="1098.4" y2="1113.2"/>
  <polygon class="rocker-band" points="90.0,1095.8 111.0,1095.8 132.0,1095.8 153.0,1097.0 174.0,1099.8 195.0,1103.4 216.1,1107.3 237.1,1110.6 258.1,1112.8 279.1,1113.2 300.1,1113.2 321.1,1113.2 342.1,1113.2 363.1,1113.2 384.1,1113.2 405.1,1113.2 426.1,1113.2 447.1,1113.2 468.2,1113.2 489.2,1113.2 510.2,1113.2 531.2,1113.2 552.2,1113.2 573.2,1113.2 594.2,1113.2 615.2,1113.2 636.2,1113.2 657.2,1113.2 678.2,1113.2 699.2,1112.8 720.2,1111.5 741.3,1109.0 762.3,1105.5 783.3,1100.9 804.3,1095.2 825.3,1088.7 846.3,1081.4 867.3,1073.5 888.3,1065.2 909.3,1056.6 930.3,1048.0 951.3,1039.6 972.4,1031.6 993.4,1024.2 1014.4,1017.7 1035.4,1012.2 1056.4,1008.0 1077.4,1005.4 1098.4,1004.5 1098.4,1113.2 90.0,1113.2"/>
  <polyline class="rocker" points="90.0,1095.8 111.0,1095.8 132.0,1095.8 153.0,1097.0 174.0,1099.8 195.0,1103.4 216.1,1107.3 237.1,1110.6 258.1,1112.8 279.1,1113.2 300.1,1113.2 321.1,1113.2 342.1,1113.2 363.1,1113.2 384.1,1113.2 405.1,1113.2 426.1,1113.2 447.1,1113.2 468.2,1113.2 489.2,1113.2 510.2,1113.2 531.2,1113.2 552.2,1113.2 573.2,1113.2 594.2,1113.2 615.2,1113.2 636.2,1113.2 657.2,1113.2 678.2,1113.2 699.2,1112.8 720.2,1111.5 741.3,1109.0 762.3,1105.5 783.3,1100.9 804.3,1095.2 825.3,1088.7 846.3,1081.4 867.3,1073.5 888.3,1065.2 909.3,1056.6 930.3,1048.0 951.3,1039.6 972.4,1031.6 993.4,1024.2 1014.4,1017.7 1035.4,1012.2 1056.4,1008.0 1077.4,1005.4 1098.4,1004.5"/>
  <text x="90" y="1165.2" class="small">Generated heuristic. Experimental design aid, not a proven board shape.</text>
</svg>
