<svg xmlns="http://www.w3.org/2000/svg" width="1188mm" height="1203mm" viewBox="0 0 1188 1203">
  <title>pump-13l foil board template</title>
  <style>
    text { font-family: system-ui, sans-serif; fill: #263238; }
    .small { font-size: 24px; }
    .label { font-size: 30px; font-weight: 650; }
    .outline { fill: #e7f3f1; stroke: #123c46; stroke-width: 4; }
    .rocker-band { fill: #d5eee9; stroke: none; }
    .rocker { fill: none; stroke: #004f63; stroke-width: 8; }
    .guide { stroke: #d05d2d; stroke-width: 3; stroke-dasharray: 12 10; }
    .hardware { fill: none; stroke: #7d3c98; stroke-width: 4; }
    .stance { stroke: #546e7a; stroke-width: 2; stroke-dasharray: 8 9; }
    .baseline { stroke: #546e7a; stroke-width: 2; }
  </style>
  <rect width="100%" height="100%" fill="#fbfaf6"/>
  <text x="90" y="48" class="label">Foil Board Toolkit: pump-13l</text>
  <text x="90" y="84" class="small">Plan outline: 1008 mm x 403 mm. Estimated volume: 13.0 L.</text>

  <polygon class="outline" points="90.0,424.7 111.0,435.0 132.0,451.8 153.0,460.1 174.0,461.0 195.0,463.6 216.1,469.0 237.1,475.7 258.1,482.5 279.1,488.1 300.1,491.7 321.1,493.1 342.1,493.2 363.1,493.2 384.1,493.2 405.1,493.2 426.1,493.2 447.1,493.2 468.2,493.2 489.2,493.2 510.2,493.2 531.2,493.2 552.2,493.2 573.2,493.2 594.2,493.2 615.2,493.2 636.2,492.7 657.2,490.5 678.2,486.5 699.2,480.6 720.2,473.1 741.3,464.5 762.3,455.2 783.3,445.9 804.3,437.1 825.3,429.6 846.3,424.0 867.3,421.0 888.3,420.6 909.3,419.9 930.3,417.9 951.3,414.2 972.4,408.9 993.4,402.5 1014.4,395.4 1035.4,388.3 1056.4,382.2 1077.4,377.9 1098.4,376.3 1098.4,206.9 1077.4,205.3 1056.4,201.0 1035.4,194.9 1014.4,187.8 993.4,180.7 972.4,174.3 951.3,169.0 930.3,165.3 909.3,163.3 888.3,162.6 867.3,162.2 846.3,159.2 825.3,153.6 804.3,146.1 783.3,137.3 762.3,128.0 741.3,118.7 720.2,110.1 699.2,102.6 678.2,96.7 657.2,92.7 636.2,90.5 615.2,90.0 594.2,90.0 573.2,90.0 552.2,90.0 531.2,90.0 510.2,90.0 489.2,90.0 468.2,90.0 447.1,90.0 426.1,90.0 405.1,90.0 384.1,90.0 363.1,90.0 342.1,90.0 321.1,90.1 300.1,91.5 279.1,95.1 258.1,100.7 237.1,107.5 216.1,114.2 195.0,119.6 174.0,122.2 153.0,123.1 132.0,131.4 111.0,148.2 90.0,158.5 90.0,424.7"/>
  <rect class="hardware" x="308.8" y="246.6" width="320.0" height="90.0" rx="0"/>
  <line class="guide" x1="468.8" y1="90" x2="468.8" y2="493.2"/>
  <line class="guide" x1="502.4" y1="90" x2="502.4" y2="493.2" opacity="0.55"/>
  <line class="stance" x1="292.4" y1="90" x2="292.4" y2="493.2"/>
  <line class="stance" x1="712.4" y1="90" x2="712.4" y2="493.2"/>
  <text x="480.8" y="128" class="small">foil box centre</text>
  <text x="514.4" y="164" class="small">stance centre</text>
  <text x="308.8" y="230.6" class="small">track envelope 320 x 90 mm</text>

  <text x="90" y="708.2" class="label">Side rocker profile</text>
  <text x="420" y="708.2" class="small">vertical scale x1.4</text>
  <line class="baseline" x1="90" y1="1113.2" x2="1098.4" y2="1113.2"/>
  <polygon class="rocker-band" points="90.0,1095.8 111.0,1095.8 132.0,1095.8 153.0,1097.0 174.0,1099.8 195.0,1103.4 216.1,1107.3 237.1,1110.6 258.1,1112.8 279.1,1113.2 300.1,1113.2 321.1,1113.2 342.1,1113.2 363.1,1113.2 384.1,1113.2 405.1,1113.2 426.1,1113.2 447.1,1113.2 468.2,1113.2 489.2,1113.2 510.2,1113.2 531.2,1113.2 552.2,1113.2 573.2,1113.2 594.2,1113.2 615.2,1113.2 636.2,1113.2 657.2,1113.2 678.2,1113.2 699.2,1112.8 720.2,1111.5 741.3,1109.0 762.3,1105.5 783.3,1100.9 804.3,1095.2 825.3,1088.7 846.3,1081.4 867.3,1073.5 888.3,1065.2 909.3,1056.6 930.3,1048.0 951.3,1039.6 972.4,1031.6 993.4,1024.2 1014.4,1017.7 1035.4,1012.2 1056.4,1008.0 1077.4,1005.4 1098.4,1004.5 1098.4,1113.2 90.0,1113.2"/>
  <polyline class="rocker" points="90.0,1095.8 111.0,1095.8 132.0,1095.8 153.0,1097.0 174.0,1099.8 195.0,1103.4 216.1,1107.3 237.1,1110.6 258.1,1112.8 279.1,1113.2 300.1,1113.2 321.1,1113.2 342.1,1113.2 363.1,1113.2 384.1,1113.2 405.1,1113.2 426.1,1113.2 447.1,1113.2 468.2,1113.2 489.2,1113.2 510.2,1113.2 531.2,1113.2 552.2,1113.2 573.2,1113.2 594.2,1113.2 615.2,1113.2 636.2,1113.2 657.2,1113.2 678.2,1113.2 699.2,1112.8 720.2,1111.5 741.3,1109.0 762.3,1105.5 783.3,1100.9 804.3,1095.2 825.3,1088.7 846.3,1081.4 867.3,1073.5 888.3,1065.2 909.3,1056.6 930.3,1048.0 951.3,1039.6 972.4,1031.6 993.4,1024.2 1014.4,1017.7 1035.4,1012.2 1056.4,1008.0 1077.4,1005.4 1098.4,1004.5"/>
  <text x="90" y="1165.2" class="small">Generated heuristic. Experimental design aid, not a proven board shape.</text>
</svg>
