<svg xmlns="http://www.w3.org/2000/svg" width="2332mm" height="1709mm" viewBox="0 0 2332 1709">
  <title>wind-foil-193l foil board template</title>
  <style>
    text { font-family: system-ui, sans-serif; fill: #263238; }
    .small { font-size: 24px; }
    .label { font-size: 30px; font-weight: 650; }
    .outline { fill: #e7f3f1; stroke: #123c46; stroke-width: 4; }
    .rocker-band { fill: #d5eee9; stroke: none; }
    .rocker { fill: none; stroke: #004f63; stroke-width: 8; }
    .guide { stroke: #d05d2d; stroke-width: 3; stroke-dasharray: 12 10; }
    .baseline { stroke: #546e7a; stroke-width: 2; }
  </style>
  <rect width="100%" height="100%" fill="#fbfaf6"/>
  <text x="90" y="48" class="label">Foil Board Toolkit: wind-foil-193l</text>
  <text x="90" y="84" class="small">Plan outline: 2152 mm x 909 mm. Estimated volume: 193.0 L.</text>

  <polygon class="outline" points="90.0,772.1 179.7,809.7 269.3,864.7 359.0,877.2 448.7,902.8 538.4,938.6 628.0,971.9 717.7,989.7 807.4,990.9 897.0,992.8 986.7,995.3 1076.4,997.7 1166.0,999.2 1255.7,997.8 1345.4,986.9 1435.1,969.8 1524.7,951.1 1614.4,935.3 1704.1,927.1 1793.7,910.9 1883.4,859.0 1973.1,801.9 2062.8,772.3 2152.4,725.2 2242.1,672.0 2242.1,417.4 2152.4,364.3 2062.8,317.2 1973.1,287.6 1883.4,230.4 1793.7,178.5 1704.1,162.4 1614.4,154.1 1524.7,138.3 1435.1,119.6 1345.4,102.5 1255.7,91.7 1166.0,90.2 1076.4,91.7 986.7,94.1 897.0,96.6 807.4,98.5 717.7,99.7 628.0,117.6 538.4,150.8 448.7,186.7 359.0,212.2 269.3,224.7 179.7,279.7 90.0,317.4 90.0,772.1"/>
  <line class="guide" x1="993.9" y1="90" x2="993.9" y2="999.4"/>
  <line class="guide" x1="1045.9" y1="90" x2="1045.9" y2="999.4" opacity="0.55"/>
  <text x="1005.9" y="128" class="small">foil box centre</text>
  <text x="1057.9" y="164" class="small">stance centre</text>

  <text x="90" y="1214.44" class="label">Side rocker profile</text>
  <text x="420" y="1214.44" class="small">vertical scale x1.4</text>
  <line class="baseline" x1="90" y1="1619.44" x2="2242.1" y2="1619.44"/>
  <polygon class="rocker-band" points="90.0,1578.8 134.8,1578.8 179.7,1578.9 224.5,1581.6 269.3,1588.1 314.2,1596.6 359.0,1605.6 403.8,1613.4 448.7,1618.4 493.5,1619.4 538.4,1619.4 583.2,1619.4 628.0,1619.4 672.9,1619.4 717.7,1619.4 762.5,1619.4 807.4,1619.4 852.2,1619.4 897.0,1619.4 941.9,1619.4 986.7,1619.4 1031.5,1619.4 1076.4,1619.4 1121.2,1619.4 1166.0,1619.4 1210.9,1619.4 1255.7,1619.4 1300.6,1619.4 1345.4,1619.4 1390.2,1618.5 1435.1,1615.5 1479.9,1610.0 1524.7,1602.0 1569.6,1591.5 1614.4,1578.7 1659.2,1563.9 1704.1,1547.4 1748.9,1529.5 1793.7,1510.6 1838.6,1491.2 1883.4,1471.7 1928.3,1452.7 1973.1,1434.5 2017.9,1417.8 2062.8,1402.9 2107.6,1390.5 2152.4,1381.1 2197.3,1375.0 2242.1,1372.9 2242.1,1619.4 90.0,1619.4"/>
  <polyline class="rocker" points="90.0,1578.8 134.8,1578.8 179.7,1578.9 224.5,1581.6 269.3,1588.1 314.2,1596.6 359.0,1605.6 403.8,1613.4 448.7,1618.4 493.5,1619.4 538.4,1619.4 583.2,1619.4 628.0,1619.4 672.9,1619.4 717.7,1619.4 762.5,1619.4 807.4,1619.4 852.2,1619.4 897.0,1619.4 941.9,1619.4 986.7,1619.4 1031.5,1619.4 1076.4,1619.4 1121.2,1619.4 1166.0,1619.4 1210.9,1619.4 1255.7,1619.4 1300.6,1619.4 1345.4,1619.4 1390.2,1618.5 1435.1,1615.5 1479.9,1610.0 1524.7,1602.0 1569.6,1591.5 1614.4,1578.7 1659.2,1563.9 1704.1,1547.4 1748.9,1529.5 1793.7,1510.6 1838.6,1491.2 1883.4,1471.7 1928.3,1452.7 1973.1,1434.5 2017.9,1417.8 2062.8,1402.9 2107.6,1390.5 2152.4,1381.1 2197.3,1375.0 2242.1,1372.9"/>
  <text x="90" y="1671.44" class="small">Generated heuristic. Experimental design aid, not a proven board shape.</text>
</svg>
