<svg xmlns="http://www.w3.org/2000/svg" width="2332mm" height="1786mm" viewBox="0 0 2332 1786">
  <title>wind-foil-193l foil board template</title>
  <style>
    text { font-family: system-ui, sans-serif; fill: #263238; }
    .small { font-size: 24px; }
    .label { font-size: 30px; font-weight: 650; }
    .outline { fill: #e7f3f1; stroke: #123c46; stroke-width: 4; }
    .rocker-band { fill: #d5eee9; stroke: none; }
    .rocker { fill: none; stroke: #004f63; stroke-width: 8; }
    .deck { fill: none; stroke: #123c46; stroke-width: 5; }
    .guide { stroke: #d05d2d; stroke-width: 3; stroke-dasharray: 12 10; }
    .hardware { fill: none; stroke: #7d3c98; stroke-width: 4; }
    .stance { stroke: #546e7a; stroke-width: 2; stroke-dasharray: 8 9; }
    .baseline { stroke: #546e7a; stroke-width: 2; }
  </style>
  <rect width="100%" height="100%" fill="#fbfaf6"/>
  <text x="90" y="48" class="label">Foil Board Toolkit: wind-foil-193l</text>
  <text x="90" y="84" class="small">Plan outline: 2152 x 909 x 148 mm. Estimated volume: 193.0 L.</text>

  <polygon class="outline" points="90.0,790.3 134.8,808.5 179.7,846.6 224.5,880.8 269.3,897.4 314.2,899.5 359.0,903.9 403.8,913.2 448.7,926.1 493.5,940.9 538.4,956.2 583.2,970.5 628.0,982.7 672.9,991.8 717.7,997.3 762.5,999.4 807.4,999.4 852.2,999.4 897.0,999.4 941.9,999.4 986.7,999.4 1031.5,999.4 1076.4,999.4 1121.2,999.4 1166.0,999.4 1210.9,999.4 1255.7,999.4 1300.6,999.4 1345.4,999.4 1390.2,997.3 1435.1,990.2 1479.9,977.5 1524.7,959.6 1569.6,937.5 1614.4,912.9 1659.2,887.4 1704.1,863.0 1748.9,841.9 1793.7,826.3 1838.6,818.2 1883.4,816.9 1928.3,811.4 1973.1,799.4 2017.9,781.9 2062.8,760.9 2107.6,738.9 2152.4,719.1 2197.3,704.8 2242.1,699.3 2242.1,390.1 2197.3,384.7 2152.4,370.4 2107.6,350.6 2062.8,328.6 2017.9,307.5 1973.1,290.0 1928.3,278.1 1883.4,272.5 1838.6,271.2 1793.7,263.2 1748.9,247.5 1704.1,226.4 1659.2,202.0 1614.4,176.5 1569.6,151.9 1524.7,129.9 1479.9,112.0 1435.1,99.3 1390.2,92.1 1345.4,90.0 1300.6,90.0 1255.7,90.0 1210.9,90.0 1166.0,90.0 1121.2,90.0 1076.4,90.0 1031.5,90.0 986.7,90.0 941.9,90.0 897.0,90.0 852.2,90.0 807.4,90.0 762.5,90.1 717.7,92.1 672.9,97.6 628.0,106.7 583.2,118.9 538.4,133.3 493.5,148.5 448.7,163.4 403.8,176.2 359.0,185.6 314.2,189.9 269.3,192.0 224.5,208.6 179.7,242.8 134.8,280.9 90.0,299.2 90.0,790.3"/>
  <rect class="hardware" x="833.9" y="499.7" width="320.0" height="90.0" rx="0"/>
  <line class="guide" x1="993.9" y1="90" x2="993.9" y2="999.4"/>
  <line class="guide" x1="1045.9" y1="90" x2="1045.9" y2="999.4" opacity="0.55"/>
  <line class="stance" x1="720.9" y1="90" x2="720.9" y2="999.4"/>
  <line class="stance" x1="1370.9" y1="90" x2="1370.9" y2="999.4"/>
  <text x="1005.9" y="128" class="small">foil box centre</text>
  <text x="1057.9" y="164" class="small">stance centre</text>
  <text x="833.9" y="483.7" class="small">track envelope 320 x 90 mm</text>

  <text x="90" y="1214.44" class="label">Side rocker profile</text>
  <text x="420" y="1214.44" class="small">vertical scale x1.4. Stock envelope 2200 x 940 x 280 mm.</text>
  <line class="baseline" x1="90" y1="1695.9423357029361" x2="2242.1" y2="1695.9423357029361"/>
  <polygon class="rocker-band" points="90.0,1504.1 134.8,1501.9 179.7,1497.3 224.5,1494.3 269.3,1494.6 314.2,1496.9 359.0,1499.2 403.8,1499.9 448.7,1497.9 493.5,1492.1 538.4,1485.9 583.2,1480.7 628.0,1476.6 672.9,1473.8 717.7,1472.3 762.5,1471.7 807.4,1471.3 852.2,1470.9 897.0,1470.6 941.9,1470.3 986.7,1470.1 1031.5,1469.9 1076.4,1469.8 1121.2,1469.7 1166.0,1469.7 1210.9,1469.7 1255.7,1469.8 1300.6,1469.9 1345.4,1470.1 1390.2,1469.8 1435.1,1468.4 1479.9,1465.7 1524.7,1461.4 1569.6,1455.5 1614.4,1448.2 1659.2,1439.4 1704.1,1429.2 1748.9,1417.8 1793.7,1405.3 1838.6,1392.0 1883.4,1378.2 1928.3,1364.9 1973.1,1352.6 2017.9,1341.5 2062.8,1332.0 2107.6,1324.3 2152.4,1318.7 2197.3,1315.3 2242.1,1314.4 2242.1,1449.4 2197.3,1451.6 2152.4,1457.6 2107.6,1467.0 2062.8,1479.4 2017.9,1494.3 1973.1,1511.0 1928.3,1529.2 1883.4,1548.2 1838.6,1567.7 1793.7,1587.1 1748.9,1606.0 1704.1,1623.9 1659.2,1640.4 1614.4,1655.2 1569.6,1668.0 1524.7,1678.5 1479.9,1686.5 1435.1,1692.0 1390.2,1695.0 1345.4,1695.9 1300.6,1695.9 1255.7,1695.9 1210.9,1695.9 1166.0,1695.9 1121.2,1695.9 1076.4,1695.9 1031.5,1695.9 986.7,1695.9 941.9,1695.9 897.0,1695.9 852.2,1695.9 807.4,1695.9 762.5,1695.9 717.7,1695.9 672.9,1695.9 628.0,1695.9 583.2,1695.9 538.4,1695.9 493.5,1695.9 448.7,1694.9 403.8,1689.9 359.0,1682.1 314.2,1673.1 269.3,1664.6 224.5,1658.2 179.7,1655.4 134.8,1655.3 90.0,1655.3"/>
  <polyline class="deck" points="90.0,1504.1 134.8,1501.9 179.7,1497.3 224.5,1494.3 269.3,1494.6 314.2,1496.9 359.0,1499.2 403.8,1499.9 448.7,1497.9 493.5,1492.1 538.4,1485.9 583.2,1480.7 628.0,1476.6 672.9,1473.8 717.7,1472.3 762.5,1471.7 807.4,1471.3 852.2,1470.9 897.0,1470.6 941.9,1470.3 986.7,1470.1 1031.5,1469.9 1076.4,1469.8 1121.2,1469.7 1166.0,1469.7 1210.9,1469.7 1255.7,1469.8 1300.6,1469.9 1345.4,1470.1 1390.2,1469.8 1435.1,1468.4 1479.9,1465.7 1524.7,1461.4 1569.6,1455.5 1614.4,1448.2 1659.2,1439.4 1704.1,1429.2 1748.9,1417.8 1793.7,1405.3 1838.6,1392.0 1883.4,1378.2 1928.3,1364.9 1973.1,1352.6 2017.9,1341.5 2062.8,1332.0 2107.6,1324.3 2152.4,1318.7 2197.3,1315.3 2242.1,1314.4"/>
  <polyline class="rocker" points="90.0,1655.3 134.8,1655.3 179.7,1655.4 224.5,1658.2 269.3,1664.6 314.2,1673.1 359.0,1682.1 403.8,1689.9 448.7,1694.9 493.5,1695.9 538.4,1695.9 583.2,1695.9 628.0,1695.9 672.9,1695.9 717.7,1695.9 762.5,1695.9 807.4,1695.9 852.2,1695.9 897.0,1695.9 941.9,1695.9 986.7,1695.9 1031.5,1695.9 1076.4,1695.9 1121.2,1695.9 1166.0,1695.9 1210.9,1695.9 1255.7,1695.9 1300.6,1695.9 1345.4,1695.9 1390.2,1695.0 1435.1,1692.0 1479.9,1686.5 1524.7,1678.5 1569.6,1668.0 1614.4,1655.2 1659.2,1640.4 1704.1,1623.9 1748.9,1606.0 1793.7,1587.1 1838.6,1567.7 1883.4,1548.2 1928.3,1529.2 1973.1,1511.0 2017.9,1494.3 2062.8,1479.4 2107.6,1467.0 2152.4,1457.6 2197.3,1451.6 2242.1,1449.4"/>
  <text x="90" y="1747.9423357029361" class="small">Generated heuristic. Experimental design aid, not a proven board shape.</text>
</svg>
