<svg xmlns="http://www.w3.org/2000/svg" width="2332mm" height="1709mm" viewBox="0 0 2332 1709">
  <title>wind-foil-193l foil board template</title>
  <style>
    text { font-family: system-ui, sans-serif; fill: #263238; }
    .small { font-size: 24px; }
    .label { font-size: 30px; font-weight: 650; }
    .outline { fill: #e7f3f1; stroke: #123c46; stroke-width: 4; }
    .rocker-band { fill: #d5eee9; stroke: none; }
    .rocker { fill: none; stroke: #004f63; stroke-width: 8; }
    .guide { stroke: #d05d2d; stroke-width: 3; stroke-dasharray: 12 10; }
    .baseline { stroke: #546e7a; stroke-width: 2; }
  </style>
  <rect width="100%" height="100%" fill="#fbfaf6"/>
  <text x="90" y="48" class="label">Foil Board Toolkit: wind-foil-193l</text>
  <text x="90" y="84" class="small">Plan outline: 2152 mm x 909 mm. Estimated volume: 193.0 L.</text>

  <polygon class="outline" points="90.0,772.1 179.7,802.4 269.3,856.9 359.0,881.4 448.7,894.9 538.4,923.1 628.0,956.3 717.7,984.8 807.4,999.1 897.0,999.4 986.7,999.4 1076.4,999.4 1166.0,999.4 1255.7,999.4 1345.4,999.3 1435.1,984.3 1524.7,949.9 1614.4,905.8 1704.1,861.3 1793.7,825.8 1883.4,808.8 1973.1,791.7 2062.8,744.5 2152.4,695.0 2242.1,672.0 2242.1,417.4 2152.4,394.5 2062.8,344.9 1973.1,297.7 1883.4,280.6 1793.7,263.6 1704.1,228.2 1614.4,183.7 1524.7,139.5 1435.1,105.2 1345.4,90.1 1255.7,90.0 1166.0,90.0 1076.4,90.0 986.7,90.0 897.0,90.0 807.4,90.3 717.7,104.6 628.0,133.2 538.4,166.4 448.7,194.5 359.0,208.0 269.3,232.6 179.7,287.0 90.0,317.4 90.0,772.1"/>
  <line class="guide" x1="993.9" y1="90" x2="993.9" y2="999.4"/>
  <line class="guide" x1="1045.9" y1="90" x2="1045.9" y2="999.4" opacity="0.55"/>
  <text x="1005.9" y="128" class="small">foil box centre</text>
  <text x="1057.9" y="164" class="small">stance centre</text>

  <text x="90" y="1214.44" class="label">Side rocker profile</text>
  <text x="420" y="1214.44" class="small">vertical scale x1.4</text>
  <line class="baseline" x1="90" y1="1619.44" x2="2242.1" y2="1619.44"/>
  <polygon class="rocker-band" points="90.0,1578.8 134.8,1578.8 179.7,1578.9 224.5,1581.6 269.3,1588.1 314.2,1596.6 359.0,1605.6 403.8,1613.4 448.7,1618.4 493.5,1619.4 538.4,1619.4 583.2,1619.4 628.0,1619.4 672.9,1619.4 717.7,1619.4 762.5,1619.4 807.4,1619.4 852.2,1619.4 897.0,1619.4 941.9,1619.4 986.7,1619.4 1031.5,1619.4 1076.4,1619.4 1121.2,1619.4 1166.0,1619.4 1210.9,1619.4 1255.7,1619.4 1300.6,1619.4 1345.4,1619.4 1390.2,1618.5 1435.1,1615.5 1479.9,1610.0 1524.7,1602.0 1569.6,1591.5 1614.4,1578.7 1659.2,1563.9 1704.1,1547.4 1748.9,1529.5 1793.7,1510.6 1838.6,1491.2 1883.4,1471.7 1928.3,1452.7 1973.1,1434.5 2017.9,1417.8 2062.8,1402.9 2107.6,1390.5 2152.4,1381.1 2197.3,1375.0 2242.1,1372.9 2242.1,1619.4 90.0,1619.4"/>
  <polyline class="rocker" points="90.0,1578.8 134.8,1578.8 179.7,1578.9 224.5,1581.6 269.3,1588.1 314.2,1596.6 359.0,1605.6 403.8,1613.4 448.7,1618.4 493.5,1619.4 538.4,1619.4 583.2,1619.4 628.0,1619.4 672.9,1619.4 717.7,1619.4 762.5,1619.4 807.4,1619.4 852.2,1619.4 897.0,1619.4 941.9,1619.4 986.7,1619.4 1031.5,1619.4 1076.4,1619.4 1121.2,1619.4 1166.0,1619.4 1210.9,1619.4 1255.7,1619.4 1300.6,1619.4 1345.4,1619.4 1390.2,1618.5 1435.1,1615.5 1479.9,1610.0 1524.7,1602.0 1569.6,1591.5 1614.4,1578.7 1659.2,1563.9 1704.1,1547.4 1748.9,1529.5 1793.7,1510.6 1838.6,1491.2 1883.4,1471.7 1928.3,1452.7 1973.1,1434.5 2017.9,1417.8 2062.8,1402.9 2107.6,1390.5 2152.4,1381.1 2197.3,1375.0 2242.1,1372.9"/>
  <text x="90" y="1671.44" class="small">Generated heuristic. Experimental design aid, not a proven board shape.</text>
</svg>
